<svg xmlns="http://www.w3.org/2000/svg" width="20" height="21" viewBox="0 0 20 21" fill="none">
  <path d="M9.76701 17.685C10.729 17.685 11.6815 17.4955 12.5703 17.1274C13.459 16.7593 14.2665 16.2197 14.9467 15.5395C15.6269 14.8593 16.1665 14.0518 16.5346 13.163C16.9028 12.2743 17.0922 11.3217 17.0922 10.3598C17.0922 9.39782 16.9028 8.44528 16.5346 7.55655C16.1665 6.66781 15.6269 5.86028 14.9467 5.18007C14.2665 4.49986 13.459 3.96029 12.5703 3.59216C11.6815 3.22404 10.729 3.03457 9.76701 3.03457C7.82424 3.03457 5.96104 3.80633 4.5873 5.18007C3.21355 6.55382 2.44179 8.41702 2.44179 10.3598C2.44179 12.3026 3.21355 14.1658 4.5873 15.5395C5.96104 16.9132 7.82424 17.685 9.76701 17.685ZM18.7201 10.3598C18.7201 15.3043 14.7115 19.3128 9.76701 19.3128C4.82249 19.3128 0.813965 15.3043 0.813965 10.3598C0.813965 5.41526 4.82249 1.40674 9.76701 1.40674C14.7115 1.40674 18.7201 5.41526 18.7201 10.3598ZM12.2088 13.9524L8.9531 10.6967V5.06935H10.5809V10.0228L13.3596 12.8015L12.2088 13.9524Z" fill="#1E293B"/>
</svg>