<svg xmlns="http://www.w3.org/2000/svg" width="25" height="25" viewBox="0 0 25 25" fill="none">
  <path fill-rule="evenodd" clip-rule="evenodd" d="M14.9024 12.8202C14.7596 12.4162 14.495 12.0665 14.1451 11.8191C13.7952 11.5717 13.3772 11.4388 12.9487 11.4388V10.9209H11.9128V11.4388C11.3634 11.4388 10.8364 11.6571 10.4479 12.0457C10.0593 12.4342 9.84106 12.9612 9.84106 13.5106C9.84106 14.0601 10.0593 14.5871 10.4479 14.9756C10.8364 15.3641 11.3634 15.5824 11.9128 15.5824V17.6542C11.4622 17.6542 11.0784 17.3667 10.9355 16.9638C10.9143 16.8978 10.8801 16.8368 10.8349 16.7844C10.7897 16.7319 10.7344 16.689 10.6723 16.6583C10.6103 16.6275 10.5427 16.6095 10.4736 16.6054C10.4044 16.6012 10.3352 16.611 10.2699 16.634C10.2046 16.6571 10.1446 16.693 10.0934 16.7397C10.0422 16.7864 10.0009 16.8428 9.97197 16.9057C9.943 16.9686 9.92694 17.0367 9.92474 17.1059C9.92254 17.1751 9.93424 17.2441 9.95916 17.3087C10.102 17.7127 10.3666 18.0625 10.7165 18.3098C11.0664 18.5572 11.4843 18.6901 11.9128 18.6901V19.208H12.9487V18.6901C13.4982 18.6901 14.0252 18.4718 14.4137 18.0833C14.8022 17.6947 15.0205 17.1678 15.0205 16.6183C15.0205 16.0688 14.8022 15.5419 14.4137 15.1533C14.0252 14.7648 13.4982 14.5465 12.9487 14.5465V12.4747C13.163 12.4747 13.3719 12.541 13.5469 12.6647C13.7218 12.7883 13.8541 12.9632 13.9256 13.1652C13.9713 13.2947 14.0666 13.4008 14.1906 13.46C14.252 13.4893 14.3185 13.5063 14.3864 13.5099C14.4544 13.5135 14.5223 13.5038 14.5865 13.4811C14.6506 13.4585 14.7097 13.4234 14.7603 13.3779C14.8108 13.3324 14.852 13.2775 14.8813 13.2161C14.9107 13.1547 14.9276 13.0882 14.9312 13.0202C14.9349 12.9523 14.9251 12.8843 14.9024 12.8202ZM11.9128 12.4747C11.6381 12.4747 11.3746 12.5839 11.1804 12.7781C10.9861 12.9724 10.877 13.2359 10.877 13.5106C10.877 13.7854 10.9861 14.0488 11.1804 14.2431C11.3746 14.4374 11.6381 14.5465 11.9128 14.5465V12.4747ZM12.9487 17.6542C13.2235 17.6542 13.487 17.545 13.6812 17.3508C13.8755 17.1565 13.9846 16.893 13.9846 16.6183C13.9846 16.3436 13.8755 16.0801 13.6812 15.8858C13.487 15.6915 13.2235 15.5824 12.9487 15.5824V17.6542Z" fill="#1E293B"/>
  <path fill-rule="evenodd" clip-rule="evenodd" d="M6.81261 4.50939C8.08365 3.88734 10.1689 3.15186 12.451 3.15186C14.6854 3.15186 16.7157 3.85678 17.98 4.47054L18.0515 4.50525C18.4327 4.69378 18.7404 4.87195 18.9569 5.01646L17.0436 7.81336C21.4544 12.3226 24.8614 21.7963 12.451 21.7963C0.0404785 21.7963 3.35584 12.4945 7.80499 7.81336L5.90413 5.01646C6.05071 4.92064 6.23665 4.80928 6.45833 4.69119C6.56814 4.63214 6.68623 4.57102 6.81261 4.50939ZM15.814 7.77607L17.3455 5.53699C15.9212 5.63954 14.2265 5.97414 12.5949 6.4465C11.4296 6.78317 10.1347 6.73189 8.93567 6.51073C8.63351 6.45471 8.33343 6.38803 8.03599 6.3108L9.03045 7.77503C11.1618 8.53382 13.6821 8.53382 15.814 7.77607ZM8.43222 8.65761C10.9261 9.62099 13.9235 9.62099 16.4174 8.65657C17.4584 9.75394 18.3292 11.001 19.0009 12.3563C19.7012 13.7847 20.0824 15.2127 20.0202 16.4434C19.9601 17.631 19.4929 18.6457 18.426 19.3998C17.3139 20.1855 15.4436 20.7604 12.4504 20.7604C9.45413 20.7604 7.57502 20.1954 6.45264 19.4184C5.3779 18.6736 4.90605 17.673 4.83924 16.5014C4.76932 15.2842 5.14224 13.8635 5.83991 12.4251C6.50547 11.0536 7.43414 9.73338 8.43222 8.65761ZM7.83659 5.18013C8.25094 5.3034 8.68394 5.41061 9.12316 5.49193C10.2367 5.69704 11.3534 5.72708 12.3065 5.45101C13.417 5.12748 14.5466 4.87302 15.6886 4.68912C14.7356 4.40217 13.621 4.18775 12.4504 4.18775C10.6661 4.18775 9.00196 4.68549 7.83659 5.18013Z" fill="#1E293B"/>
</svg>