<svg xmlns="http://www.w3.org/2000/svg" width="25" height="26" viewBox="0 0 25 26" fill="none">
  <g clip-path="url(#clip0_11077_19740)">
    <path d="M20.7177 2.52295H9.66822V5.97592H11.0494V3.90414H20.7177C21.1321 3.90414 21.4083 4.18037 21.4083 4.59473V12.1913C21.4083 12.6056 21.1321 12.8818 20.7177 12.8818H11.74V17.716H8.07986L5.52466 19.7187V17.716H3.45288C3.03853 17.716 2.76229 17.4398 2.76229 17.0254V9.42888C2.76229 9.01453 3.03853 8.73829 3.45288 8.73829H12.4306V7.3571H3.45288C2.27887 7.3571 1.3811 8.25487 1.3811 9.42888V17.0254C1.3811 18.1994 2.27887 19.0972 3.45288 19.0972H4.14348V22.6192L8.49421 19.0972H13.1212V14.263H20.7177C21.8917 14.263 22.7895 13.3653 22.7895 12.1913V4.59473C22.7895 3.42072 21.8917 2.52295 20.7177 2.52295Z" fill="#1E293B"/>
    <path d="M4.28174 16.2659H5.93916L6.35352 15.161H8.49436L8.90871 16.2659H10.5661L8.21812 10.1196H6.5607L4.28174 16.2659ZM7.38941 11.8461L8.08 13.987H6.69881L7.38941 11.8461Z" fill="#1E293B"/>
    <path d="M13.8118 12.1913C14.5714 12.1913 15.6073 11.9841 16.5741 11.5007C17.541 11.9841 18.6459 12.1913 19.3365 12.1913V10.8101C19.3365 10.8101 18.6459 10.8101 17.8863 10.5338C18.715 9.70512 19.3365 8.46205 19.3365 6.66651V5.97591H17.2647V4.59473H15.8835V5.97591H13.8118V7.3571H17.8863C17.7481 8.60017 17.1957 9.35982 16.5741 9.84324C16.1598 9.49794 15.7454 9.01452 15.4692 8.39299H14.0189C14.2952 9.29076 14.7095 9.98135 15.262 10.5338C14.5714 10.8101 13.9499 10.8101 13.8118 10.8101V12.1913Z" fill="#1E293B"/>
  </g>
  <defs>
    <clipPath id="clip0_11077_19740">
      <rect width="24.8614" height="24.8614" fill="white" transform="translate(0 0.451172)"/>
    </clipPath>
  </defs>
</svg>