<svg width="222" height="165" viewBox="0 0 222 165" fill="none" xmlns="http://www.w3.org/2000/svg">
<g id="finance-leaders/rafiki">
<g id="background-complete">
<path id="Vector" d="M221.957 144.999H0.515869V145.11H221.957V144.999Z" fill="#EBEBEB"/>
<path id="Vector_2" d="M199.768 152.125H185.1V152.236H199.768V152.125Z" fill="#EBEBEB"/>
<path id="Vector_3" d="M147.207 153.33H143.359V153.44H147.207V153.33Z" fill="#EBEBEB"/>
<path id="Vector_4" d="M184.657 148.016H176.158V148.126H184.657V148.016Z" fill="#EBEBEB"/>
<path id="Vector_5" d="M42.8776 148.759H23.7495V148.87H42.8776V148.759Z" fill="#EBEBEB"/>
<path id="Vector_6" d="M49.6269 148.759H46.8235V148.87H49.6269V148.759Z" fill="#EBEBEB"/>
<path id="Vector_7" d="M100.231 150.628H58.7417V150.739H100.231V150.628Z" fill="#EBEBEB"/>
<path id="Vector_8" d="M105.479 125.247H19.9629C19.293 125.246 18.6509 124.979 18.1776 124.505C17.7043 124.031 17.4385 123.388 17.4385 122.718V2.50671C17.4443 1.84063 17.7127 1.20374 18.1854 0.734394C18.658 0.265046 19.2968 0.00114103 19.9629 0H105.479C106.15 0 106.793 0.266432 107.267 0.740684C107.741 1.21494 108.008 1.85816 108.008 2.52885V122.718C108.008 123.389 107.741 124.032 107.267 124.506C106.793 124.981 106.15 125.247 105.479 125.247ZM19.9629 0.0885767C19.3223 0.0897499 18.7084 0.345034 18.2559 0.798395C17.8034 1.25176 17.5492 1.86615 17.5492 2.50671V122.718C17.5492 123.359 17.8034 123.973 18.2559 124.426C18.7084 124.88 19.3223 125.135 19.9629 125.136H105.479C106.12 125.135 106.734 124.88 107.188 124.427C107.641 123.973 107.896 123.359 107.897 122.718V2.50671C107.896 1.86574 107.641 1.25136 107.188 0.798124C106.734 0.34489 106.12 0.0897474 105.479 0.0885767H19.9629Z" fill="#EBEBEB"/>
<path id="Vector_9" d="M201.279 125.247H115.758C115.088 125.246 114.445 124.979 113.971 124.505C113.497 124.031 113.23 123.388 113.229 122.718V2.50671C113.236 1.84022 113.506 1.20334 113.979 0.734117C114.452 0.264891 115.092 0.00112859 115.758 0H201.279C201.944 0.00230498 202.582 0.266725 203.053 0.735949C203.525 1.20517 203.793 1.84139 203.799 2.50671V122.718C203.799 123.387 203.533 124.029 203.061 124.503C202.589 124.977 201.948 125.245 201.279 125.247ZM115.758 0.0885767C115.117 0.0897474 114.503 0.34489 114.05 0.798124C113.596 1.25136 113.341 1.86574 113.34 2.50671V122.718C113.341 123.359 113.596 123.973 114.05 124.427C114.503 124.88 115.117 125.135 115.758 125.136H201.279C201.92 125.135 202.534 124.88 202.987 124.427C203.44 123.973 203.696 123.359 203.697 122.718V2.50671C203.696 1.86574 203.44 1.25136 202.987 0.798124C202.534 0.34489 201.92 0.0897474 201.279 0.0885767H115.758Z" fill="#EBEBEB"/>
<path id="Vector_10" d="M196.208 144.437V122.594H186.128V102.341H184.706V113.953H180.826V110.743H173.851V99.6263H172.558V86.0386H171.521V99.3782H169.068V119.14H164.413V99.3782H156.016V116.088H147.198V95.8352H145.777V107.443H141.897V104.232H134.922V93.1159H133.628V79.5327H132.592V92.8723H130.139V112.629H125.488V92.8723H117.087V111.987H111.422V100.871H110.129V87.2831H109.097V100.623H106.639V120.384H101.989V100.623H93.5876V120.384H89.451V122.594H82.2099V102.341H80.7883V113.953H76.9086V110.743H69.9333V99.6263H68.64V86.0386H67.6037V99.3782H65.3539V98.2666H56.9524V99.3782H52.2977V98.2666H49.8441V84.927H48.8122V98.5146H47.519V109.627H40.5392V112.837H36.664V101.229H35.2423V121.482H25.1624V144.437H196.208Z" fill="#EBEBEB"/>
<path id="Vector_11" d="M66.2978 42.81C72.5777 40.2088 75.5599 33.0092 72.9587 26.7292C70.3574 20.4493 63.1578 17.4671 56.8779 20.0684C50.598 22.6696 47.6158 29.8692 50.217 36.1491C52.8183 42.4291 60.0179 45.4112 66.2978 42.81Z" fill="#FAFAFA"/>
<path id="Vector_12" d="M55.2074 31.3029C55.2068 30.9695 55.1284 30.6409 54.9785 30.3431C54.8285 30.0453 54.6112 29.7866 54.3438 29.5875C54.0763 29.3884 53.7661 29.2545 53.4379 29.1963C53.1096 29.1381 52.7722 29.1573 52.4527 29.2524C52.5483 28.6087 52.5038 27.952 52.3224 27.3271C52.1409 26.7021 51.8267 26.1237 51.4012 25.6314C50.9757 25.139 50.4489 24.7443 49.8569 24.4742C49.2648 24.2041 48.6215 24.0649 47.9707 24.0663C47.6913 24.0658 47.4124 24.0925 47.1381 24.146C46.6927 23.4126 46.0212 22.8437 45.2246 22.525C44.428 22.2063 43.5494 22.155 42.721 22.3788C41.8927 22.6026 41.1595 23.0894 40.6318 23.766C40.1041 24.4425 39.8105 25.2722 39.7951 26.1301H39.7287C38.7608 26.1301 37.8326 26.5146 37.1482 27.199C36.4638 27.8833 36.0793 28.8116 36.0793 29.7794C36.0793 30.7473 36.4638 31.6755 37.1482 32.3599C37.8326 33.0443 38.7608 33.4288 39.7287 33.4288H53.1259C53.6812 33.4149 54.2093 33.1852 54.598 32.7882C54.9867 32.3913 55.2053 31.8585 55.2074 31.3029Z" fill="#F0F0F0"/>
<path id="Vector_13" d="M189.972 60.945C189.971 60.6116 189.893 60.2829 189.743 59.9851C189.593 59.6873 189.376 59.4286 189.108 59.2295C188.841 59.0304 188.53 58.8965 188.202 58.8383C187.874 58.7802 187.537 58.7994 187.217 58.8944C187.313 58.2507 187.268 57.594 187.087 56.9691C186.905 56.3442 186.591 55.7658 186.166 55.2734C185.74 54.781 185.213 54.3863 184.621 54.1162C184.029 53.8461 183.386 53.707 182.735 53.7083C182.454 53.7086 182.174 53.7338 181.898 53.7836C181.448 53.054 180.774 52.49 179.977 52.1763C179.179 51.8625 178.302 51.816 177.476 52.0436C176.649 52.2712 175.919 52.7608 175.395 53.4387C174.871 54.1166 174.581 54.9463 174.568 55.8031H174.502C173.534 55.8031 172.606 56.1876 171.921 56.872C171.237 57.5564 170.853 58.4846 170.853 59.4525C170.853 60.4203 171.237 61.3485 171.921 62.0329C172.606 62.7173 173.534 63.1018 174.502 63.1018H187.899C188.458 63.0856 188.989 62.8505 189.376 62.4471C189.764 62.0438 189.978 61.5044 189.972 60.945Z" fill="#F0F0F0"/>
<path id="Vector_14" d="M126.609 28.4553C126.607 27.9269 126.729 27.4053 126.965 26.9327C127.201 26.46 127.545 26.0495 127.969 25.734C128.393 25.4186 128.885 25.2072 129.406 25.1168C129.927 25.0264 130.461 25.0595 130.967 25.2134C130.917 24.8687 130.892 24.5209 130.891 24.1726C130.89 23.1194 131.121 22.0789 131.568 21.1252C132.015 20.1716 132.667 19.3284 133.478 18.6558C134.288 17.9832 135.237 17.4978 136.257 17.2342C137.277 16.9706 138.342 16.9353 139.377 17.1308C140.082 15.9677 141.147 15.0658 142.41 14.5615C143.673 14.0572 145.067 13.978 146.379 14.3357C147.691 14.6934 148.851 15.4687 149.684 16.5443C150.517 17.6199 150.976 18.9373 150.994 20.2974H151.096C152.627 20.2974 154.095 20.9056 155.178 21.9883C156.26 23.0709 156.869 24.5393 156.869 26.0704C156.869 27.6015 156.26 29.0698 155.178 30.1525C154.095 31.2351 152.627 31.8433 151.096 31.8433H129.899C129.017 31.8191 128.18 31.4513 127.565 30.8184C126.95 30.1855 126.607 29.3376 126.609 28.4553Z" fill="#F0F0F0"/>
<path id="Vector_15" d="M64.0603 65.3121C64.0596 64.6768 64.2076 64.0502 64.4924 63.4824C64.7773 62.9146 65.1911 62.4214 65.7007 62.0422C66.2104 61.663 66.8017 61.4083 67.4274 61.2986C68.0531 61.1888 68.6958 61.2271 69.304 61.4103C69.2416 60.9969 69.2105 60.5794 69.211 60.1614C69.211 57.8732 70.12 55.6789 71.7379 54.0609C73.3559 52.443 75.5502 51.534 77.8384 51.534C78.3702 51.5353 78.9008 51.5842 79.4239 51.6802C80.269 50.2741 81.5502 49.1826 83.0726 48.5716C84.595 47.9605 86.2753 47.8634 87.858 48.2951C89.4406 48.7267 90.839 49.6634 91.8404 50.9628C92.8418 52.2621 93.3914 53.853 93.4056 55.4934H93.5208C94.4478 55.47 95.3701 55.6323 96.2334 55.9709C97.0967 56.3095 97.8834 56.8174 98.5473 57.4648C99.2113 58.1122 99.7389 58.8859 100.099 59.7403C100.459 60.5948 100.645 61.5127 100.645 62.44C100.645 63.3673 100.459 64.2852 100.099 65.1396C99.7389 65.9941 99.2113 66.7678 98.5473 67.4152C97.8834 68.0625 97.0967 68.5705 96.2334 68.909C95.3701 69.2476 94.4478 69.41 93.5208 69.3866H68.0108C66.9515 69.3554 65.946 68.9123 65.2083 68.1514C64.4705 67.3905 64.0587 66.3719 64.0603 65.3121Z" fill="#F0F0F0"/>
<path id="Vector_16" d="M82.0503 37.7116C82.0503 37.3592 81.9103 37.0213 81.6611 36.7721C81.412 36.5229 81.074 36.3829 80.7216 36.3829C80.5924 36.3815 80.4638 36.4009 80.3408 36.4405C80.3601 36.304 80.3704 36.1665 80.3718 36.0286C80.3718 35.2816 80.075 34.5651 79.5468 34.0369C79.0185 33.5087 78.3021 33.2119 77.555 33.2119C77.3812 33.2123 77.2077 33.2286 77.0369 33.2606C76.7593 32.8041 76.3407 32.4503 75.8444 32.2525C75.3481 32.0548 74.8009 32.0238 74.2854 32.1643C73.7699 32.3048 73.3141 32.6091 72.9868 33.0314C72.6595 33.4536 72.4783 33.9709 72.4707 34.5051H72.4309C71.8295 34.5051 71.2527 34.744 70.8275 35.1693C70.4022 35.5945 70.1633 36.1713 70.1633 36.7727C70.1633 37.3741 70.4022 37.9508 70.8275 38.3761C71.2527 38.8013 71.8295 39.0402 72.4309 39.0402H80.7615C81.1069 39.0299 81.4347 38.8853 81.6753 38.6373C81.9159 38.3892 82.0504 38.0572 82.0503 37.7116Z" fill="#F0F0F0"/>
<path id="Vector_17" d="M33.6079 78.1022C33.6079 77.7498 33.7479 77.4119 33.9971 77.1627C34.2462 76.9135 34.5842 76.7736 34.9366 76.7736C35.0668 76.7732 35.1965 76.7911 35.3219 76.8267C35.3002 76.692 35.2898 76.5557 35.2909 76.4193C35.2909 76.0494 35.3637 75.6831 35.5053 75.3413C35.6468 74.9996 35.8543 74.6891 36.1159 74.4275C36.3774 74.166 36.6879 73.9585 37.0297 73.8169C37.3714 73.6754 37.7377 73.6025 38.1076 73.6025C38.2814 73.603 38.4549 73.6193 38.6258 73.6512C38.9034 73.1947 39.3219 72.8409 39.8182 72.6432C40.3146 72.4454 40.8617 72.4144 41.3772 72.5549C41.8927 72.6954 42.3485 72.9997 42.6758 73.422C43.0032 73.8443 43.1843 74.3615 43.1919 74.8957H43.2317C43.8331 74.8957 44.4099 75.1346 44.8351 75.5599C45.2604 75.9851 45.4993 76.5619 45.4993 77.1633C45.4993 77.7647 45.2604 78.3414 44.8351 78.7667C44.4099 79.1919 43.8331 79.4308 43.2317 79.4308H34.9011C34.5549 79.4216 34.226 79.2776 33.9845 79.0294C33.7429 78.7812 33.6078 78.4485 33.6079 78.1022Z" fill="#F0F0F0"/>
<path id="Vector_18" d="M158.275 82.442C158.275 82.0897 158.415 81.7517 158.664 81.5026C158.913 81.2534 159.251 81.1134 159.604 81.1134C159.734 81.113 159.864 81.1309 159.989 81.1665C159.967 81.0318 159.957 80.8955 159.958 80.7591C159.958 80.0121 160.255 79.2956 160.783 78.7674C161.311 78.2391 162.028 77.9424 162.775 77.9424C162.948 77.9428 163.122 77.9591 163.293 77.9911C163.57 77.5346 163.989 77.1808 164.485 76.983C164.982 76.7852 165.529 76.7543 166.044 76.8948C166.56 77.0353 167.015 77.3396 167.343 77.7618C167.67 78.1841 167.851 78.7014 167.859 79.2356H167.899C168.5 79.2356 169.077 79.4745 169.502 79.8997C169.927 80.325 170.166 80.9017 170.166 81.5031C170.166 82.1045 169.927 82.6813 169.502 83.1065C169.077 83.5318 168.5 83.7707 167.899 83.7707H159.568C159.222 83.7615 158.893 83.6174 158.651 83.3692C158.41 83.1211 158.275 82.7884 158.275 82.442Z" fill="#F0F0F0"/>
</g>
<g id="Shadow">
<path id="path" d="M111.236 165C158.661 165 197.107 162.756 197.107 159.987C197.107 157.218 158.661 154.974 111.236 154.974C63.8114 154.974 25.366 157.218 25.366 159.987C25.366 162.756 63.8114 165 111.236 165Z" fill="#F5F5F5"/>
</g>
<g id="Arrow">
<path id="Vector_19" d="M172.708 29.2431L153.775 58.0703L152.942 59.3413L151.295 60.1031L92.6929 87.3359L98.4813 107.173L99.8055 111.708L95.2173 115.499L55.6812 153.919H22.9656L82.1168 104.794L78.5339 85.2898L77.5596 79.9796L82.139 77.8715L144.594 49.1152L164.936 23.9507L159.479 22.87L176.632 15.7529L175.751 34.3052L172.708 29.2431Z" fill="#263238"/>
<path id="Vector_20" opacity="0.6" d="M172.708 29.2431L153.775 58.0703L152.942 59.3413L151.295 60.1031L92.6929 87.3359L98.4813 107.173L99.8055 111.708L95.2173 115.499L55.6812 153.919H22.9656L82.1168 104.794L78.5339 85.2898L77.5596 79.9796L82.139 77.8715L144.594 49.1152L164.936 23.9507L159.479 22.87L176.632 15.7529L175.751 34.3052L172.708 29.2431Z" fill="#FAFAFA"/>
</g>
<g id="character-2">
<path id="Vector_21" d="M162.81 152.125H131.454C131.146 152.125 130.896 152.375 130.896 152.684V159.832C130.896 160.14 131.146 160.39 131.454 160.39H162.81C163.118 160.39 163.368 160.14 163.368 159.832V152.684C163.368 152.375 163.118 152.125 162.81 152.125Z" fill="#407BFF"/>
<path id="Vector_22" opacity="0.2" d="M133.633 152.604H132.349V159.987H133.633V152.604Z" fill="black"/>
<path id="Vector_23" opacity="0.2" d="M136.552 152.568H135.617V159.951H136.552V152.568Z" fill="black"/>
<path id="Vector_24" opacity="0.2" d="M139.24 152.604H138.771V159.987H139.24V152.604Z" fill="black"/>
<path id="Vector_25" opacity="0.2" d="M142.862 152.568H142.628V159.951H142.862V152.568Z" fill="black"/>
<path id="Vector_26" opacity="0.2" d="M160.631 159.951H161.915V152.568H160.631V159.951Z" fill="black"/>
<path id="Vector_27" opacity="0.2" d="M157.712 159.987H158.647V152.604H157.712V159.987Z" fill="black"/>
<path id="Vector_28" opacity="0.2" d="M155.029 159.951H155.494V152.568H155.029V159.951Z" fill="black"/>
<path id="Vector_29" opacity="0.2" d="M151.401 159.987H151.636V152.604H151.401V159.987Z" fill="black"/>
<path id="Vector_30" opacity="0.2" d="M147.075 159.987H147.19V152.604H147.075V159.987Z" fill="black"/>
<path id="Vector_31" opacity="0.2" d="M162.5 153.383H131.83C131.727 153.383 131.628 153.342 131.555 153.269C131.482 153.196 131.441 153.097 131.441 152.994C131.442 152.891 131.483 152.792 131.556 152.719C131.629 152.647 131.727 152.605 131.83 152.604H162.5C162.603 152.604 162.702 152.645 162.776 152.718C162.849 152.791 162.89 152.89 162.89 152.994C162.89 153.045 162.881 153.096 162.861 153.144C162.842 153.191 162.813 153.234 162.777 153.271C162.741 153.307 162.697 153.336 162.65 153.355C162.602 153.374 162.551 153.384 162.5 153.383Z" fill="white"/>
<path id="Vector_32" d="M163.696 143.884H132.34C132.032 143.884 131.782 144.134 131.782 144.442V151.59C131.782 151.898 132.032 152.148 132.34 152.148H163.696C164.004 152.148 164.254 151.898 164.254 151.59V144.442C164.254 144.134 164.004 143.884 163.696 143.884Z" fill="#407BFF"/>
<path id="Vector_33" opacity="0.2" d="M134.519 144.362H133.234V151.745H134.519V144.362Z" fill="black"/>
<path id="Vector_34" opacity="0.2" d="M137.442 144.326H136.507V151.709H137.442V144.326Z" fill="black"/>
<path id="Vector_35" opacity="0.2" d="M140.126 144.362H139.661V151.745H140.126V144.362Z" fill="black"/>
<path id="Vector_36" opacity="0.2" d="M143.748 144.326H143.513V151.709H143.748V144.326Z" fill="black"/>
<path id="Vector_37" opacity="0.2" d="M161.521 151.705H162.806V144.322H161.521V151.705Z" fill="black"/>
<path id="Vector_38" opacity="0.2" d="M158.598 151.74H159.533V144.357H158.598V151.74Z" fill="black"/>
<path id="Vector_39" opacity="0.2" d="M155.91 151.705H156.379V144.322H155.91V151.705Z" fill="black"/>
<path id="Vector_40" opacity="0.2" d="M152.287 151.74H152.522V144.357H152.287V151.74Z" fill="black"/>
<path id="Vector_41" opacity="0.2" d="M147.96 151.74H148.075V144.357H147.96V151.74Z" fill="black"/>
<path id="Vector_42" opacity="0.2" d="M163.386 145.141H132.716C132.613 145.14 132.515 145.099 132.442 145.026C132.369 144.953 132.328 144.855 132.326 144.752C132.326 144.648 132.367 144.549 132.441 144.476C132.514 144.403 132.613 144.362 132.716 144.362H163.386C163.437 144.361 163.488 144.371 163.536 144.39C163.583 144.41 163.626 144.438 163.663 144.475C163.699 144.511 163.728 144.554 163.747 144.602C163.766 144.649 163.776 144.7 163.775 144.752C163.775 144.855 163.734 144.954 163.661 145.027C163.588 145.1 163.489 145.141 163.386 145.141Z" fill="white"/>
<path id="Vector_43" d="M163.696 135.642H132.34C132.032 135.642 131.782 135.891 131.782 136.2V143.348C131.782 143.656 132.032 143.906 132.34 143.906H163.696C164.004 143.906 164.254 143.656 164.254 143.348V136.2C164.254 135.891 164.004 135.642 163.696 135.642Z" fill="#407BFF"/>
<path id="Vector_44" opacity="0.2" d="M134.519 136.115H133.234V143.498H134.519V136.115Z" fill="black"/>
<path id="Vector_45" opacity="0.2" d="M137.442 136.08H136.507V143.463H137.442V136.08Z" fill="black"/>
<path id="Vector_46" opacity="0.2" d="M140.126 136.115H139.661V143.498H140.126V136.115Z" fill="black"/>
<path id="Vector_47" opacity="0.2" d="M143.748 136.08H143.513V143.463H143.748V136.08Z" fill="black"/>
<path id="Vector_48" opacity="0.2" d="M161.521 143.463H162.806V136.08H161.521V143.463Z" fill="black"/>
<path id="Vector_49" opacity="0.2" d="M158.598 143.499H159.533V136.116H158.598V143.499Z" fill="black"/>
<path id="Vector_50" opacity="0.2" d="M155.91 143.463H156.379V136.08H155.91V143.463Z" fill="black"/>
<path id="Vector_51" opacity="0.2" d="M152.287 143.499H152.522V136.116H152.287V143.499Z" fill="black"/>
<path id="Vector_52" opacity="0.2" d="M147.96 143.499H148.075V136.116H147.96V143.499Z" fill="black"/>
<path id="Vector_53" opacity="0.2" d="M163.386 136.894H132.716C132.613 136.894 132.514 136.853 132.441 136.78C132.367 136.707 132.326 136.608 132.326 136.504C132.328 136.401 132.369 136.303 132.442 136.23C132.515 136.157 132.613 136.116 132.716 136.115H163.386C163.489 136.115 163.588 136.156 163.661 136.229C163.734 136.302 163.775 136.401 163.775 136.504C163.776 136.556 163.766 136.607 163.747 136.654C163.728 136.702 163.699 136.745 163.663 136.781C163.626 136.818 163.583 136.846 163.536 136.866C163.488 136.885 163.437 136.895 163.386 136.894Z" fill="white"/>
<path id="Vector_54" d="M162.81 127.395H131.454C131.146 127.395 130.896 127.645 130.896 127.953V135.101C130.896 135.409 131.146 135.659 131.454 135.659H162.81C163.118 135.659 163.368 135.409 163.368 135.101V127.953C163.368 127.645 163.118 127.395 162.81 127.395Z" fill="#407BFF"/>
<path id="Vector_55" opacity="0.2" d="M133.633 127.874H132.349V135.256H133.633V127.874Z" fill="black"/>
<path id="Vector_56" opacity="0.2" d="M136.552 127.838H135.617V135.221H136.552V127.838Z" fill="black"/>
<path id="Vector_57" opacity="0.2" d="M139.24 127.874H138.771V135.256H139.24V127.874Z" fill="black"/>
<path id="Vector_58" opacity="0.2" d="M142.862 127.838H142.628V135.221H142.862V127.838Z" fill="black"/>
<path id="Vector_59" opacity="0.2" d="M160.631 135.217H161.915V127.834H160.631V135.217Z" fill="black"/>
<path id="Vector_60" opacity="0.2" d="M157.712 135.251H158.647V127.869H157.712V135.251Z" fill="black"/>
<path id="Vector_61" opacity="0.2" d="M155.029 135.217H155.494V127.834H155.029V135.217Z" fill="black"/>
<path id="Vector_62" opacity="0.2" d="M151.401 135.251H151.636V127.869H151.401V135.251Z" fill="black"/>
<path id="Vector_63" opacity="0.2" d="M147.075 135.251H147.19V127.869H147.075V135.251Z" fill="black"/>
<path id="Vector_64" opacity="0.2" d="M162.5 128.653H131.83C131.727 128.652 131.629 128.61 131.556 128.538C131.483 128.465 131.442 128.366 131.441 128.263C131.441 128.16 131.482 128.061 131.555 127.988C131.628 127.915 131.727 127.874 131.83 127.874H162.5C162.551 127.873 162.602 127.883 162.65 127.902C162.697 127.921 162.741 127.95 162.777 127.986C162.813 128.023 162.842 128.066 162.861 128.113C162.881 128.161 162.89 128.212 162.89 128.263C162.89 128.367 162.849 128.466 162.776 128.539C162.702 128.612 162.603 128.653 162.5 128.653Z" fill="white"/>
<path id="Vector_65" d="M161.481 119.153H130.125C129.817 119.153 129.567 119.403 129.567 119.711V126.859C129.567 127.168 129.817 127.417 130.125 127.417H161.481C161.79 127.417 162.039 127.168 162.039 126.859V119.711C162.039 119.403 161.79 119.153 161.481 119.153Z" fill="#407BFF"/>
<path id="Vector_66" opacity="0.2" d="M132.304 119.627H131.02V127.01H132.304V119.627Z" fill="black"/>
<path id="Vector_67" opacity="0.2" d="M135.223 119.591H134.289V126.974H135.223V119.591Z" fill="black"/>
<path id="Vector_68" opacity="0.2" d="M137.907 119.627H137.442V127.01H137.907V119.627Z" fill="black"/>
<path id="Vector_69" opacity="0.2" d="M141.534 119.591H141.299V126.974H141.534V119.591Z" fill="black"/>
<path id="Vector_70" opacity="0.2" d="M159.302 126.974H160.587V119.591H159.302V126.974Z" fill="black"/>
<path id="Vector_71" opacity="0.2" d="M156.379 127.01H157.314V119.627H156.379V127.01Z" fill="black"/>
<path id="Vector_72" opacity="0.2" d="M153.7 126.974H154.165V119.591H153.7V126.974Z" fill="black"/>
<path id="Vector_73" opacity="0.2" d="M150.077 127.01H150.312V119.627H150.077V127.01Z" fill="black"/>
<path id="Vector_74" opacity="0.2" d="M145.746 127.01H145.861V119.627H145.746V127.01Z" fill="black"/>
<path id="Vector_75" opacity="0.2" d="M161.171 120.406H130.502C130.45 120.407 130.4 120.397 130.352 120.378C130.304 120.359 130.261 120.33 130.225 120.294C130.189 120.257 130.16 120.214 130.141 120.167C130.121 120.119 130.111 120.068 130.112 120.017C130.112 119.913 130.153 119.814 130.226 119.741C130.299 119.668 130.398 119.627 130.502 119.627H161.171C161.275 119.627 161.374 119.668 161.447 119.741C161.52 119.814 161.561 119.913 161.561 120.017C161.562 120.068 161.552 120.119 161.533 120.167C161.513 120.214 161.485 120.257 161.448 120.294C161.412 120.33 161.369 120.359 161.321 120.378C161.274 120.397 161.223 120.407 161.171 120.406Z" fill="white"/>
<path id="Vector_76" d="M162.81 110.907H131.454C131.146 110.907 130.896 111.157 130.896 111.465V118.613C130.896 118.921 131.146 119.171 131.454 119.171H162.81C163.118 119.171 163.368 118.921 163.368 118.613V111.465C163.368 111.157 163.118 110.907 162.81 110.907Z" fill="#407BFF"/>
<path id="Vector_77" opacity="0.2" d="M133.633 111.385H132.349V118.768H133.633V111.385Z" fill="black"/>
<path id="Vector_78" opacity="0.2" d="M136.552 111.349H135.617V118.732H136.552V111.349Z" fill="black"/>
<path id="Vector_79" opacity="0.2" d="M139.24 111.385H138.771V118.768H139.24V111.385Z" fill="black"/>
<path id="Vector_80" opacity="0.2" d="M142.862 111.349H142.628V118.732H142.862V111.349Z" fill="black"/>
<path id="Vector_81" opacity="0.2" d="M160.631 118.728H161.915V111.345H160.631V118.728Z" fill="black"/>
<path id="Vector_82" opacity="0.2" d="M157.712 118.764H158.647V111.381H157.712V118.764Z" fill="black"/>
<path id="Vector_83" opacity="0.2" d="M155.029 118.728H155.494V111.345H155.029V118.728Z" fill="black"/>
<path id="Vector_84" opacity="0.2" d="M151.401 118.764H151.636V111.381H151.401V118.764Z" fill="black"/>
<path id="Vector_85" opacity="0.2" d="M147.075 118.764H147.19V111.381H147.075V118.764Z" fill="black"/>
<path id="Vector_86" opacity="0.2" d="M162.5 112.164H131.83C131.727 112.164 131.628 112.123 131.555 112.05C131.482 111.977 131.441 111.878 131.441 111.775C131.441 111.671 131.482 111.572 131.555 111.499C131.628 111.426 131.727 111.385 131.83 111.385H162.5C162.551 111.384 162.602 111.394 162.65 111.413C162.697 111.433 162.741 111.461 162.777 111.498C162.813 111.534 162.842 111.577 162.861 111.625C162.881 111.672 162.89 111.723 162.89 111.775C162.89 111.826 162.881 111.877 162.861 111.924C162.842 111.972 162.813 112.015 162.777 112.051C162.741 112.088 162.697 112.116 162.65 112.136C162.602 112.155 162.551 112.165 162.5 112.164Z" fill="white"/>
<path id="Vector_87" d="M162.81 102.665H131.454C131.146 102.665 130.896 102.914 130.896 103.223V110.371C130.896 110.679 131.146 110.929 131.454 110.929H162.81C163.118 110.929 163.368 110.679 163.368 110.371V103.223C163.368 102.914 163.118 102.665 162.81 102.665Z" fill="#407BFF"/>
<path id="Vector_88" opacity="0.2" d="M133.633 103.139H132.349V110.522H133.633V103.139Z" fill="black"/>
<path id="Vector_89" opacity="0.2" d="M136.552 103.103H135.617V110.486H136.552V103.103Z" fill="black"/>
<path id="Vector_90" opacity="0.2" d="M139.24 103.139H138.771V110.522H139.24V103.139Z" fill="black"/>
<path id="Vector_91" opacity="0.2" d="M142.862 103.103H142.628V110.486H142.862V103.103Z" fill="black"/>
<path id="Vector_92" opacity="0.2" d="M160.631 110.486H161.915V103.103H160.631V110.486Z" fill="black"/>
<path id="Vector_93" opacity="0.2" d="M157.712 110.521H158.647V103.139H157.712V110.521Z" fill="black"/>
<path id="Vector_94" opacity="0.2" d="M155.029 110.486H155.494V103.103H155.029V110.486Z" fill="black"/>
<path id="Vector_95" opacity="0.2" d="M151.401 110.521H151.636V103.139H151.401V110.521Z" fill="black"/>
<path id="Vector_96" opacity="0.2" d="M147.075 110.521H147.19V103.139H147.075V110.521Z" fill="black"/>
<path id="Vector_97" opacity="0.2" d="M162.5 103.923H131.83C131.727 103.921 131.628 103.879 131.555 103.806C131.482 103.732 131.441 103.632 131.441 103.528C131.442 103.425 131.483 103.327 131.556 103.254C131.629 103.181 131.727 103.14 131.83 103.139H162.5C162.603 103.139 162.702 103.18 162.776 103.253C162.849 103.326 162.89 103.425 162.89 103.528C162.89 103.58 162.881 103.631 162.861 103.679C162.842 103.727 162.813 103.77 162.777 103.807C162.741 103.844 162.698 103.873 162.65 103.892C162.603 103.912 162.552 103.923 162.5 103.923Z" fill="white"/>
<path id="Vector_98" d="M164.139 94.418H132.783C132.474 94.418 132.225 94.6678 132.225 94.976V102.124C132.225 102.432 132.474 102.682 132.783 102.682H164.139C164.447 102.682 164.697 102.432 164.697 102.124V94.976C164.697 94.6678 164.447 94.418 164.139 94.418Z" fill="#407BFF"/>
<path id="Vector_99" opacity="0.2" d="M134.962 94.8965H133.677V102.279H134.962V94.8965Z" fill="black"/>
<path id="Vector_100" opacity="0.2" d="M137.885 94.8613H136.95V102.244H137.885V94.8613Z" fill="black"/>
<path id="Vector_101" opacity="0.2" d="M140.573 94.8965H140.104V102.279H140.573V94.8965Z" fill="black"/>
<path id="Vector_102" opacity="0.2" d="M144.191 94.8613H143.956V102.244H144.191V94.8613Z" fill="black"/>
<path id="Vector_103" opacity="0.2" d="M161.964 102.24H163.249V94.8569H161.964V102.24Z" fill="black"/>
<path id="Vector_104" opacity="0.2" d="M159.041 102.279H159.975V94.8965H159.041V102.279Z" fill="black"/>
<path id="Vector_105" opacity="0.2" d="M156.357 102.24H156.822V94.8569H156.357V102.24Z" fill="black"/>
<path id="Vector_106" opacity="0.2" d="M152.73 102.279H152.965V94.8965H152.73V102.279Z" fill="black"/>
<path id="Vector_107" opacity="0.2" d="M148.408 102.279H148.523V94.8965H148.408V102.279Z" fill="black"/>
<path id="Vector_108" opacity="0.2" d="M163.829 95.6628H133.163C133.112 95.6634 133.061 95.6537 133.013 95.6344C132.965 95.6151 132.922 95.5865 132.885 95.5502C132.848 95.514 132.819 95.4708 132.799 95.4232C132.78 95.3757 132.769 95.3246 132.769 95.2731C132.769 95.2215 132.78 95.1705 132.799 95.1229C132.819 95.0753 132.848 95.0321 132.885 94.9959C132.922 94.9596 132.965 94.931 133.013 94.9117C133.061 94.8924 133.112 94.8827 133.163 94.8833H163.829C163.88 94.8827 163.931 94.8924 163.979 94.9117C164.027 94.931 164.07 94.9596 164.107 94.9959C164.144 95.0321 164.173 95.0753 164.193 95.1229C164.213 95.1705 164.223 95.2215 164.223 95.2731C164.223 95.3246 164.213 95.3757 164.193 95.4232C164.173 95.4708 164.144 95.514 164.107 95.5502C164.07 95.5865 164.027 95.6151 163.979 95.6344C163.931 95.6537 163.88 95.6634 163.829 95.6628Z" fill="white"/>
<path id="Vector_109" d="M161.924 86.1763H130.568C130.26 86.1763 130.01 86.4261 130.01 86.7343V93.8824C130.01 94.1906 130.26 94.4404 130.568 94.4404H161.924C162.232 94.4404 162.482 94.1906 162.482 93.8824V86.7343C162.482 86.4261 162.232 86.1763 161.924 86.1763Z" fill="#407BFF"/>
<path id="Vector_110" opacity="0.2" d="M132.747 86.6538H131.463V94.0366H132.747V86.6538Z" fill="black"/>
<path id="Vector_111" opacity="0.2" d="M135.665 86.6143H134.731V93.9971H135.665V86.6143Z" fill="black"/>
<path id="Vector_112" opacity="0.2" d="M138.349 86.6538H137.884V94.0366H138.349V86.6538Z" fill="black"/>
<path id="Vector_113" opacity="0.2" d="M141.977 86.6143H141.742V93.9971H141.977V86.6143Z" fill="black"/>
<path id="Vector_114" opacity="0.2" d="M159.745 93.9971H161.03V86.6142H159.745V93.9971Z" fill="black"/>
<path id="Vector_115" opacity="0.2" d="M156.822 94.0327H157.757V86.6499H156.822V94.0327Z" fill="black"/>
<path id="Vector_116" opacity="0.2" d="M154.143 93.9971H154.608V86.6142H154.143V93.9971Z" fill="black"/>
<path id="Vector_117" opacity="0.2" d="M150.516 94.0327H150.75V86.6499H150.516V94.0327Z" fill="black"/>
<path id="Vector_118" opacity="0.2" d="M146.189 94.0327H146.304V86.6499H146.189V94.0327Z" fill="black"/>
<path id="Vector_119" opacity="0.2" d="M161.614 87.4333H130.945C130.842 87.4322 130.743 87.3907 130.67 87.3179C130.598 87.245 130.556 87.1466 130.555 87.0436C130.555 86.9402 130.596 86.8411 130.669 86.768C130.742 86.6949 130.841 86.6538 130.945 86.6538H161.614C161.666 86.6532 161.717 86.6629 161.764 86.6823C161.812 86.7017 161.855 86.7304 161.891 86.7667C161.927 86.803 161.956 86.8462 161.975 86.8937C161.995 86.9413 162.005 86.9922 162.004 87.0436C162.004 87.1469 161.963 87.2461 161.89 87.3192C161.817 87.3922 161.718 87.4333 161.614 87.4333Z" fill="white"/>
<path id="Vector_120" d="M161.038 77.9297H129.682C129.374 77.9297 129.124 78.1795 129.124 78.4877V85.6358C129.124 85.944 129.374 86.1939 129.682 86.1939H161.038C161.347 86.1939 161.596 85.944 161.596 85.6358V78.4877C161.596 78.1795 161.347 77.9297 161.038 77.9297Z" fill="#407BFF"/>
<path id="Vector_121" opacity="0.2" d="M131.861 78.4077H130.577V85.7906H131.861V78.4077Z" fill="black"/>
<path id="Vector_122" opacity="0.2" d="M134.78 78.3721H133.845V85.7549H134.78V78.3721Z" fill="black"/>
<path id="Vector_123" opacity="0.2" d="M137.468 78.4077H136.999V85.7906H137.468V78.4077Z" fill="black"/>
<path id="Vector_124" opacity="0.2" d="M141.091 78.3721H140.856V85.7549H141.091V78.3721Z" fill="black"/>
<path id="Vector_125" opacity="0.2" d="M158.859 85.751H160.144V78.3681H158.859V85.751Z" fill="black"/>
<path id="Vector_126" opacity="0.2" d="M155.936 85.7905H156.871V78.4077H155.936V85.7905Z" fill="black"/>
<path id="Vector_127" opacity="0.2" d="M153.252 85.751H153.718V78.3681H153.252V85.751Z" fill="black"/>
<path id="Vector_128" opacity="0.2" d="M149.634 85.7905H149.869V78.4077H149.634V85.7905Z" fill="black"/>
<path id="Vector_129" opacity="0.2" d="M145.303 85.7905H145.418V78.4077H145.303V85.7905Z" fill="black"/>
<path id="Vector_130" opacity="0.2" d="M160.729 79.1872H130.059C130.008 79.1878 129.957 79.1781 129.909 79.1588C129.862 79.1394 129.818 79.1107 129.782 79.0744C129.746 79.0381 129.717 78.9949 129.698 78.9473C129.678 78.8998 129.669 78.8488 129.669 78.7975C129.669 78.7461 129.678 78.6952 129.698 78.6476C129.717 78.6001 129.746 78.5569 129.782 78.5206C129.818 78.4843 129.862 78.4556 129.909 78.4362C129.957 78.4168 130.008 78.4071 130.059 78.4077H160.729C160.78 78.4071 160.831 78.4168 160.878 78.4362C160.926 78.4556 160.969 78.4843 161.005 78.5206C161.042 78.5569 161.07 78.6001 161.09 78.6476C161.109 78.6952 161.119 78.7461 161.118 78.7975C161.119 78.8488 161.109 78.8998 161.09 78.9473C161.07 78.9949 161.042 79.0381 161.005 79.0744C160.969 79.1107 160.926 79.1394 160.878 79.1588C160.831 79.1781 160.78 79.1878 160.729 79.1872Z" fill="white"/>
<path id="Vector_131" d="M122.928 152.125H91.5722C91.264 152.125 91.0142 152.375 91.0142 152.684V159.832C91.0142 160.14 91.264 160.39 91.5722 160.39H122.928C123.236 160.39 123.486 160.14 123.486 159.832V152.684C123.486 152.375 123.236 152.125 122.928 152.125Z" fill="#407BFF"/>
<path id="Vector_132" opacity="0.2" d="M93.7468 152.604H92.4624V159.987H93.7468V152.604Z" fill="black"/>
<path id="Vector_133" opacity="0.2" d="M96.6698 152.568H95.7354V159.951H96.6698V152.568Z" fill="black"/>
<path id="Vector_134" opacity="0.2" d="M99.3537 152.604H98.8887V159.987H99.3537V152.604Z" fill="black"/>
<path id="Vector_135" opacity="0.2" d="M102.977 152.568H102.742V159.951H102.977V152.568Z" fill="black"/>
<path id="Vector_136" opacity="0.2" d="M120.749 159.951H122.034V152.568H120.749V159.951Z" fill="black"/>
<path id="Vector_137" opacity="0.2" d="M117.827 159.987H118.761V152.604H117.827V159.987Z" fill="black"/>
<path id="Vector_138" opacity="0.2" d="M115.143 159.951H115.608V152.568H115.143V159.951Z" fill="black"/>
<path id="Vector_139" opacity="0.2" d="M111.52 159.987H111.755V152.604H111.52V159.987Z" fill="black"/>
<path id="Vector_140" opacity="0.2" d="M107.193 159.987H107.308V152.604H107.193V159.987Z" fill="black"/>
<path id="Vector_141" opacity="0.2" d="M122.619 153.383H91.9491C91.8977 153.384 91.8468 153.374 91.7992 153.355C91.7517 153.336 91.7085 153.307 91.6722 153.271C91.6359 153.234 91.6072 153.191 91.5878 153.144C91.5684 153.096 91.5588 153.045 91.5594 152.994C91.5594 152.89 91.6004 152.791 91.6735 152.718C91.7466 152.645 91.8457 152.604 91.9491 152.604H122.619C122.722 152.605 122.82 152.647 122.893 152.719C122.966 152.792 123.007 152.891 123.008 152.994C123.008 153.097 122.967 153.196 122.894 153.269C122.821 153.342 122.722 153.383 122.619 153.383Z" fill="white"/>
<path id="Vector_142" d="M121.595 143.884H90.2392C89.931 143.884 89.6812 144.134 89.6812 144.442V151.59C89.6812 151.898 89.931 152.148 90.2392 152.148H121.595C121.903 152.148 122.153 151.898 122.153 151.59V144.442C122.153 144.134 121.903 143.884 121.595 143.884Z" fill="#407BFF"/>
<path id="Vector_143" opacity="0.2" d="M92.4181 144.362H91.1338V151.745H92.4181V144.362Z" fill="black"/>
<path id="Vector_144" opacity="0.2" d="M95.3412 144.326H94.4067V151.709H95.3412V144.326Z" fill="black"/>
<path id="Vector_145" opacity="0.2" d="M98.0251 144.362H97.5601V151.745H98.0251V144.362Z" fill="black"/>
<path id="Vector_146" opacity="0.2" d="M101.648 144.326H101.413V151.709H101.648V144.326Z" fill="black"/>
<path id="Vector_147" opacity="0.2" d="M119.421 151.705H120.705V144.322H119.421V151.705Z" fill="black"/>
<path id="Vector_148" opacity="0.2" d="M116.498 151.74H117.432V144.357H116.498V151.74Z" fill="black"/>
<path id="Vector_149" opacity="0.2" d="M113.814 151.705H114.279V144.322H113.814V151.705Z" fill="black"/>
<path id="Vector_150" opacity="0.2" d="M110.187 151.74H110.421V144.357H110.187V151.74Z" fill="black"/>
<path id="Vector_151" opacity="0.2" d="M105.86 151.74H105.975V144.357H105.86V151.74Z" fill="black"/>
<path id="Vector_152" opacity="0.2" d="M121.285 145.141H90.6158C90.5128 145.14 90.4143 145.099 90.3415 145.026C90.2687 144.953 90.2272 144.855 90.2261 144.752C90.2261 144.648 90.2671 144.549 90.3402 144.476C90.4133 144.403 90.5124 144.362 90.6158 144.362H121.285C121.337 144.361 121.388 144.371 121.435 144.39C121.483 144.41 121.526 144.438 121.562 144.475C121.599 144.511 121.627 144.554 121.647 144.602C121.666 144.649 121.676 144.7 121.675 144.752C121.675 144.855 121.634 144.954 121.561 145.027C121.488 145.1 121.389 145.141 121.285 145.141Z" fill="white"/>
<path id="Vector_153" d="M122.928 135.642H91.5722C91.264 135.642 91.0142 135.891 91.0142 136.2V143.348C91.0142 143.656 91.264 143.906 91.5722 143.906H122.928C123.236 143.906 123.486 143.656 123.486 143.348V136.2C123.486 135.891 123.236 135.642 122.928 135.642Z" fill="#407BFF"/>
<path id="Vector_154" opacity="0.2" d="M93.7468 136.115H92.4624V143.498H93.7468V136.115Z" fill="black"/>
<path id="Vector_155" opacity="0.2" d="M96.6698 136.08H95.7354V143.463H96.6698V136.08Z" fill="black"/>
<path id="Vector_156" opacity="0.2" d="M99.3537 136.115H98.8887V143.498H99.3537V136.115Z" fill="black"/>
<path id="Vector_157" opacity="0.2" d="M102.977 136.08H102.742V143.463H102.977V136.08Z" fill="black"/>
<path id="Vector_158" opacity="0.2" d="M120.749 143.463H122.034V136.08H120.749V143.463Z" fill="black"/>
<path id="Vector_159" opacity="0.2" d="M117.827 143.499H118.761V136.116H117.827V143.499Z" fill="black"/>
<path id="Vector_160" opacity="0.2" d="M115.143 143.463H115.608V136.08H115.143V143.463Z" fill="black"/>
<path id="Vector_161" opacity="0.2" d="M111.52 143.499H111.755V136.116H111.52V143.499Z" fill="black"/>
<path id="Vector_162" opacity="0.2" d="M107.193 143.499H107.308V136.116H107.193V143.499Z" fill="black"/>
<path id="Vector_163" opacity="0.2" d="M122.619 136.894H91.9491C91.8977 136.895 91.8468 136.885 91.7992 136.866C91.7517 136.846 91.7085 136.818 91.6722 136.781C91.6359 136.745 91.6072 136.702 91.5878 136.654C91.5684 136.607 91.5588 136.556 91.5594 136.504C91.5594 136.401 91.6004 136.302 91.6735 136.229C91.7466 136.156 91.8457 136.115 91.9491 136.115H122.619C122.722 136.116 122.82 136.157 122.893 136.23C122.966 136.303 123.007 136.401 123.008 136.504C123.008 136.608 122.967 136.707 122.894 136.78C122.821 136.853 122.722 136.894 122.619 136.894Z" fill="white"/>
<path id="Vector_164" d="M122.038 127.395H90.6823C90.3741 127.395 90.1243 127.645 90.1243 127.953V135.101C90.1243 135.409 90.3741 135.659 90.6823 135.659H122.038C122.347 135.659 122.596 135.409 122.596 135.101V127.953C122.596 127.645 122.347 127.395 122.038 127.395Z" fill="#407BFF"/>
<path id="Vector_165" opacity="0.2" d="M92.8613 127.874H91.5769V135.256H92.8613V127.874Z" fill="black"/>
<path id="Vector_166" opacity="0.2" d="M95.7841 127.838H94.8496V135.221H95.7841V127.838Z" fill="black"/>
<path id="Vector_167" opacity="0.2" d="M98.468 127.874H98.0029V135.256H98.468V127.874Z" fill="black"/>
<path id="Vector_168" opacity="0.2" d="M102.091 127.838H101.856V135.221H102.091V127.838Z" fill="black"/>
<path id="Vector_169" opacity="0.2" d="M119.864 135.217H121.148V127.834H119.864V135.217Z" fill="black"/>
<path id="Vector_170" opacity="0.2" d="M116.941 135.251H117.875V127.869H116.941V135.251Z" fill="black"/>
<path id="Vector_171" opacity="0.2" d="M114.252 135.217H114.722V127.834H114.252V135.217Z" fill="black"/>
<path id="Vector_172" opacity="0.2" d="M110.63 135.251H110.864V127.869H110.63V135.251Z" fill="black"/>
<path id="Vector_173" opacity="0.2" d="M106.307 135.251H106.422V127.869H106.307V135.251Z" fill="black"/>
<path id="Vector_174" opacity="0.2" d="M121.728 128.653H91.0631C90.9593 128.653 90.8597 128.612 90.786 128.539C90.7122 128.466 90.6701 128.367 90.6689 128.263C90.6689 128.212 90.6792 128.161 90.699 128.113C90.7189 128.066 90.748 128.022 90.7847 127.986C90.8213 127.95 90.8648 127.921 90.9126 127.902C90.9604 127.883 91.0116 127.873 91.0631 127.874H121.728C121.78 127.873 121.831 127.883 121.879 127.902C121.927 127.921 121.97 127.95 122.007 127.986C122.043 128.022 122.072 128.066 122.092 128.113C122.112 128.161 122.122 128.212 122.122 128.263C122.121 128.367 122.079 128.466 122.005 128.539C121.932 128.612 121.832 128.653 121.728 128.653Z" fill="white"/>
<path id="Vector_175" d="M122.038 119.153H90.6823C90.3741 119.153 90.1243 119.403 90.1243 119.711V126.859C90.1243 127.168 90.3741 127.417 90.6823 127.417H122.038C122.347 127.417 122.596 127.168 122.596 126.859V119.711C122.596 119.403 122.347 119.153 122.038 119.153Z" fill="#407BFF"/>
<path id="Vector_176" opacity="0.2" d="M92.8613 119.627H91.5769V127.01H92.8613V119.627Z" fill="black"/>
<path id="Vector_177" opacity="0.2" d="M95.7841 119.591H94.8496V126.974H95.7841V119.591Z" fill="black"/>
<path id="Vector_178" opacity="0.2" d="M98.468 119.627H98.0029V127.01H98.468V119.627Z" fill="black"/>
<path id="Vector_179" opacity="0.2" d="M102.091 119.591H101.856V126.974H102.091V119.591Z" fill="black"/>
<path id="Vector_180" opacity="0.2" d="M119.864 126.974H121.148V119.591H119.864V126.974Z" fill="black"/>
<path id="Vector_181" opacity="0.2" d="M116.941 127.01H117.875V119.627H116.941V127.01Z" fill="black"/>
<path id="Vector_182" opacity="0.2" d="M114.252 126.974H114.722V119.591H114.252V126.974Z" fill="black"/>
<path id="Vector_183" opacity="0.2" d="M110.63 127.01H110.864V119.627H110.63V127.01Z" fill="black"/>
<path id="Vector_184" opacity="0.2" d="M106.307 127.01H106.422V119.627H106.307V127.01Z" fill="black"/>
<path id="Vector_185" opacity="0.2" d="M121.728 120.406H91.0631C91.0116 120.407 90.9604 120.397 90.9126 120.378C90.8648 120.359 90.8213 120.33 90.7847 120.294C90.748 120.258 90.7189 120.214 90.699 120.167C90.6792 120.119 90.6689 120.068 90.6689 120.017C90.6701 119.913 90.7122 119.814 90.786 119.741C90.8597 119.668 90.9593 119.627 91.0631 119.627H121.728C121.832 119.627 121.932 119.668 122.005 119.741C122.079 119.814 122.121 119.913 122.122 120.017C122.122 120.068 122.112 120.119 122.092 120.167C122.072 120.214 122.043 120.258 122.007 120.294C121.97 120.33 121.927 120.359 121.879 120.378C121.831 120.397 121.78 120.407 121.728 120.406Z" fill="white"/>
<path id="Vector_186" d="M122.038 110.907H90.6823C90.3741 110.907 90.1243 111.157 90.1243 111.465V118.613C90.1243 118.921 90.3741 119.171 90.6823 119.171H122.038C122.347 119.171 122.596 118.921 122.596 118.613V111.465C122.596 111.157 122.347 110.907 122.038 110.907Z" fill="#407BFF"/>
<path id="Vector_187" opacity="0.2" d="M92.8613 111.385H91.5769V118.768H92.8613V111.385Z" fill="black"/>
<path id="Vector_188" opacity="0.2" d="M95.7841 111.349H94.8496V118.732H95.7841V111.349Z" fill="black"/>
<path id="Vector_189" opacity="0.2" d="M98.468 111.385H98.0029V118.768H98.468V111.385Z" fill="black"/>
<path id="Vector_190" opacity="0.2" d="M102.091 111.349H101.856V118.732H102.091V111.349Z" fill="black"/>
<path id="Vector_191" opacity="0.2" d="M119.864 118.728H121.148V111.345H119.864V118.728Z" fill="black"/>
<path id="Vector_192" opacity="0.2" d="M116.941 118.764H117.875V111.381H116.941V118.764Z" fill="black"/>
<path id="Vector_193" opacity="0.2" d="M114.252 118.728H114.722V111.345H114.252V118.728Z" fill="black"/>
<path id="Vector_194" opacity="0.2" d="M110.63 118.764H110.864V111.381H110.63V118.764Z" fill="black"/>
<path id="Vector_195" opacity="0.2" d="M106.307 118.764H106.422V111.381H106.307V118.764Z" fill="black"/>
<path id="Vector_196" opacity="0.2" d="M121.728 112.164H91.0631C91.0116 112.165 90.9604 112.155 90.9126 112.136C90.8648 112.117 90.8213 112.088 90.7847 112.052C90.748 112.015 90.7189 111.972 90.699 111.925C90.6792 111.877 90.6689 111.826 90.6689 111.775C90.6689 111.723 90.6792 111.672 90.699 111.624C90.7189 111.577 90.748 111.534 90.7847 111.497C90.8213 111.461 90.8648 111.432 90.9126 111.413C90.9604 111.394 91.0116 111.384 91.0631 111.385H121.728C121.78 111.384 121.831 111.394 121.879 111.413C121.927 111.432 121.97 111.461 122.007 111.497C122.043 111.534 122.072 111.577 122.092 111.624C122.112 111.672 122.122 111.723 122.122 111.775C122.122 111.826 122.112 111.877 122.092 111.925C122.072 111.972 122.043 112.015 122.007 112.052C121.97 112.088 121.927 112.117 121.879 112.136C121.831 112.155 121.78 112.165 121.728 112.164Z" fill="white"/>
<path id="Vector_197" d="M122.423 94.3296H91.0673C90.7591 94.3296 90.5093 94.5794 90.5093 94.8876V102.036C90.5093 102.344 90.7591 102.594 91.0673 102.594H122.423C122.732 102.594 122.981 102.344 122.981 102.036V94.8876C122.981 94.5794 122.732 94.3296 122.423 94.3296Z" fill="#407BFF"/>
<path id="Vector_198" opacity="0.2" d="M93.2465 94.8081H91.9622V102.191H93.2465V94.8081Z" fill="black"/>
<path id="Vector_199" opacity="0.2" d="M96.1696 94.7725H95.2351V102.155H96.1696V94.7725Z" fill="black"/>
<path id="Vector_200" opacity="0.2" d="M98.8534 94.8081H98.3884V102.191H98.8534V94.8081Z" fill="black"/>
<path id="Vector_201" opacity="0.2" d="M102.476 94.7725H102.241V102.155H102.476V94.7725Z" fill="black"/>
<path id="Vector_202" opacity="0.2" d="M120.249 102.151H121.533V94.7685H120.249V102.151Z" fill="black"/>
<path id="Vector_203" opacity="0.2" d="M117.326 102.191H118.26V94.8081H117.326V102.191Z" fill="black"/>
<path id="Vector_204" opacity="0.2" d="M114.642 102.151H115.107V94.7685H114.642V102.151Z" fill="black"/>
<path id="Vector_205" opacity="0.2" d="M111.015 102.191H111.25V94.8081H111.015V102.191Z" fill="black"/>
<path id="Vector_206" opacity="0.2" d="M106.692 102.191H106.807V94.8081H106.692V102.191Z" fill="black"/>
<path id="Vector_207" opacity="0.2" d="M122.114 95.5876H91.4486C91.3971 95.5882 91.3459 95.5785 91.2981 95.5592C91.2503 95.5399 91.2068 95.5112 91.1702 95.475C91.1335 95.4387 91.1044 95.3956 91.0845 95.348C91.0647 95.3004 91.0544 95.2494 91.0544 95.1978C91.0556 95.0941 91.0977 94.9949 91.1714 94.922C91.2452 94.849 91.3448 94.8081 91.4486 94.8081H122.114C122.218 94.8081 122.317 94.849 122.391 94.922C122.465 94.9949 122.507 95.0941 122.508 95.1978C122.508 95.2494 122.498 95.3004 122.478 95.348C122.458 95.3956 122.429 95.4387 122.392 95.475C122.356 95.5112 122.312 95.5399 122.264 95.5592C122.216 95.5785 122.165 95.5882 122.114 95.5876Z" fill="white"/>
<path id="Vector_208" d="M122.928 102.665H91.5722C91.264 102.665 91.0142 102.914 91.0142 103.223V110.371C91.0142 110.679 91.264 110.929 91.5722 110.929H122.928C123.236 110.929 123.486 110.679 123.486 110.371V103.223C123.486 102.914 123.236 102.665 122.928 102.665Z" fill="#407BFF"/>
<path id="Vector_209" opacity="0.2" d="M93.7468 103.139H92.4624V110.522H93.7468V103.139Z" fill="black"/>
<path id="Vector_210" opacity="0.2" d="M96.6698 103.103H95.7354V110.486H96.6698V103.103Z" fill="black"/>
<path id="Vector_211" opacity="0.2" d="M99.3537 103.139H98.8887V110.522H99.3537V103.139Z" fill="black"/>
<path id="Vector_212" opacity="0.2" d="M102.977 103.103H102.742V110.486H102.977V103.103Z" fill="black"/>
<path id="Vector_213" opacity="0.2" d="M120.749 110.486H122.034V103.103H120.749V110.486Z" fill="black"/>
<path id="Vector_214" opacity="0.2" d="M117.827 110.521H118.761V103.139H117.827V110.521Z" fill="black"/>
<path id="Vector_215" opacity="0.2" d="M115.143 110.486H115.608V103.103H115.143V110.486Z" fill="black"/>
<path id="Vector_216" opacity="0.2" d="M111.52 110.521H111.755V103.139H111.52V110.521Z" fill="black"/>
<path id="Vector_217" opacity="0.2" d="M107.193 110.521H107.308V103.139H107.193V110.521Z" fill="black"/>
<path id="Vector_218" opacity="0.2" d="M122.619 103.923H91.9491C91.8975 103.923 91.8465 103.912 91.7989 103.892C91.7513 103.873 91.7082 103.844 91.6719 103.807C91.6357 103.77 91.6071 103.727 91.5877 103.679C91.5684 103.631 91.5588 103.58 91.5594 103.528C91.5594 103.425 91.6004 103.326 91.6735 103.253C91.7466 103.18 91.8457 103.139 91.9491 103.139H122.619C122.722 103.14 122.82 103.181 122.893 103.254C122.966 103.327 123.007 103.425 123.008 103.528C123.008 103.632 122.967 103.732 122.894 103.806C122.822 103.879 122.722 103.921 122.619 103.923Z" fill="white"/>
<path id="Vector_219" d="M111.272 89.1564L110.28 91.0962L109.27 93.067L107.503 92.4204L108.388 90.6887L109.505 88.5098L111.272 89.1564Z" fill="#FFC2BC"/>
<path id="Vector_220" opacity="0.2" d="M111.272 89.1564L110.28 91.0962L108.388 90.6887L109.504 88.5098L111.272 89.1564Z" fill="black"/>
<path id="Vector_221" d="M149.865 78.1865C149.811 78.1869 149.76 78.1677 149.72 78.1326C149.68 78.0975 149.654 78.0489 149.648 77.9961C149.586 77.5532 143.766 34.1508 136.742 15.1069C136.728 15.0791 136.72 15.0487 136.718 15.0175C136.716 14.9864 136.721 14.9553 136.733 14.9262C136.744 14.8971 136.761 14.8707 136.783 14.8488C136.806 14.8269 136.832 14.8098 136.861 14.7989C136.89 14.7879 136.922 14.7832 136.953 14.7851C136.984 14.787 137.014 14.7954 137.042 14.8099C137.069 14.8243 137.094 14.8444 137.113 14.8689C137.132 14.8934 137.146 14.9216 137.154 14.9519C144.2 34.0312 150.028 77.5045 150.086 77.9473C150.094 78.006 150.078 78.0653 150.042 78.1125C150.007 78.1597 149.954 78.191 149.896 78.1998L149.865 78.1865Z" fill="#263238"/>
<path id="Vector_222" d="M138.651 76.9372L140.533 76.8619L140.901 72.4951L139.014 72.5704L138.651 76.9372Z" fill="#FFC2BC"/>
<path id="Vector_223" d="M140.71 75.8658L138.655 75.7993C138.618 75.7995 138.581 75.8116 138.551 75.8339C138.521 75.8561 138.498 75.8875 138.487 75.9233L138.044 77.5797C138.033 77.6197 138.032 77.6616 138.04 77.7023C138.047 77.7429 138.064 77.7813 138.089 77.8145C138.114 77.8478 138.146 77.875 138.182 77.8941C138.219 77.9133 138.259 77.9239 138.301 77.9251C139.045 77.9251 140.121 77.9251 141.056 77.9517C142.145 77.9872 142.827 77.9517 144.12 77.9739C144.891 77.996 145.139 77.2254 144.816 77.1457C143.354 76.7781 142.398 76.8445 141.157 76.0252C141.026 75.9323 140.871 75.8772 140.71 75.8658Z" fill="#263238"/>
<path id="Vector_224" opacity="0.2" d="M140.901 72.4951L140.71 74.745L138.828 74.8247L139.014 72.5704L140.901 72.4951Z" fill="black"/>
<path id="Vector_225" d="M137.885 61.1175C138.363 62.0343 138.398 71.6448 138.398 74.0851H141.653C142.074 71.5563 144.156 57.9775 141.211 56.0377C137.969 53.8986 129.749 54.6338 129.749 54.6338L129.155 53.4336L127.968 51.042L121.166 53.5886L119.682 54.1377L119.071 54.368H119.018C119.018 54.368 119.018 54.4345 119.018 54.5496C119.04 54.8153 119.102 55.3512 119.213 56.02C119.341 56.8221 119.522 57.6151 119.753 58.3938C120.382 60.4444 121.498 62.3798 123.438 61.7332C123.522 61.7066 123.606 61.6712 123.69 61.6357C123.85 61.5649 124.022 61.4984 124.2 61.432C125.754 60.931 127.363 60.6144 128.992 60.4887C133.101 60.0989 137.521 60.4089 137.885 61.1175Z" fill="#263238"/>
<path id="Vector_226" d="M141.8 74.3689L137.996 74.4708L137.973 73.244L142.154 73.0713L141.8 74.3689Z" fill="#407BFF"/>
<path id="Vector_227" d="M109.597 92.1198H107.303C107.266 92.12 107.23 92.1327 107.201 92.1561C107.172 92.1794 107.152 92.2119 107.144 92.2483L106.754 93.9179C106.745 93.9584 106.745 94.0005 106.754 94.041C106.763 94.0815 106.782 94.1194 106.808 94.1518C106.834 94.1842 106.867 94.2103 106.904 94.2281C106.942 94.2459 106.983 94.2549 107.024 94.2545C107.764 94.2545 108.304 94.1969 109.239 94.1969C109.81 94.1969 111.533 94.2589 112.339 94.2589C113.145 94.2589 113.225 93.475 112.915 93.4042C111.471 93.0897 110.381 92.6513 109.921 92.235C109.877 92.1952 109.826 92.1646 109.771 92.1448C109.715 92.125 109.656 92.1165 109.597 92.1198Z" fill="#263238"/>
<path id="Vector_228" d="M126.294 54.3504L125.9 55.71C125.692 56.4363 125.404 57.424 125.068 58.571L124.226 61.4365C122.791 66.286 120.966 72.3402 119.957 75.2145C117.946 80.9188 111.219 91.0652 111.219 91.0652L107.981 89.8783C107.981 89.8783 112.95 80.3209 114.58 74.5369C115.718 70.4978 117.503 63.239 118.677 58.3629L119.239 56.0244C119.43 55.2273 119.585 54.5762 119.682 54.1201C119.78 53.6639 119.859 53.3716 119.859 53.3716L121.166 53.5709L126.294 54.3504Z" fill="#263238"/>
<path id="Vector_229" d="M111.569 91.2784L107.76 89.8789L108.189 88.7451L112.251 89.9763L111.569 91.2784Z" fill="#407BFF"/>
<path id="Vector_230" opacity="0.2" d="M129.169 53.4291L126.294 56.7817L125.9 55.71L125.457 54.5408L125.054 58.571L119.766 58.3983L118.664 58.3628L119.226 56.0244C119.115 55.3557 119.053 54.8198 119.031 54.554L119.067 54.3547L119.678 54.1245C119.793 53.6461 119.855 53.376 119.855 53.376L121.161 53.5753L127.977 51.042L129.169 53.4291Z" fill="black"/>
<path id="Vector_231" opacity="0.2" d="M129.009 60.4936C127.191 60.6154 125.401 61.0019 123.695 61.6406C123.61 61.6761 123.526 61.7115 123.442 61.7381L123.827 59.8425C123.827 59.8425 127.145 59.6875 129.009 60.4936Z" fill="black"/>
<path id="Vector_232" d="M104.274 55.2497L103.118 56.7821L102.14 54.9175C102.14 54.9175 103.251 53.611 103.911 54.2134L104.274 55.2497Z" fill="#FFC2BC"/>
<path id="Vector_233" d="M101.351 57.4819L101.063 55.5731L102.139 54.8955L103.118 56.7822L101.351 57.4819Z" fill="#FFC2BC"/>
<path id="Vector_234" d="M104.589 55.1077L104.265 55.2716L103.787 54.0581L104.301 53.8101L104.589 55.1077Z" fill="white"/>
<path id="Vector_235" d="M117.481 44.0491C117.313 44.3444 117.14 44.6278 116.963 44.8994C116.517 45.6258 116.05 46.3403 115.563 47.043L115.16 47.6232C114.753 48.2078 114.323 48.7791 113.863 49.3504C113.632 49.6338 113.397 49.9217 113.136 50.2052C112.874 50.502 112.595 50.783 112.299 51.0466C111.166 52.0109 109.92 52.8334 108.588 53.4958C107.304 54.1594 105.971 54.725 104.602 55.1876L104.026 53.8944C104.602 53.5445 105.2 53.1858 105.771 52.8137C106.342 52.4417 106.923 52.0741 107.476 51.6844C108.03 51.2947 108.575 50.9005 109.088 50.4886C109.593 50.093 110.073 49.6655 110.523 49.2087C111.374 48.2205 112.139 47.1628 112.813 46.0465C113.553 44.8994 114.487 42.8888 115.218 41.7417L117.481 44.0491Z" fill="#263238"/>
<path id="Vector_236" opacity="0.2" d="M116.963 44.899C116.517 45.6253 116.051 46.3398 115.563 47.0425C115.613 46.1111 115.872 45.2028 116.321 44.3853C116.588 44.4775 116.814 44.659 116.963 44.899Z" fill="black"/>
<path id="Vector_237" d="M142.358 39.2793L141.073 40.475L141.255 41.5822C141.724 42.2023 142.805 41.4361 143.057 41.2412C143.098 41.2119 143.141 41.1867 143.186 41.1659L143.868 40.8913C143.988 40.8412 144.089 40.7518 144.152 40.6377C144.216 40.5236 144.239 40.3914 144.218 40.2625L144.085 39.4476C144.073 39.3711 144.045 39.2979 144.004 39.2324C143.963 39.1669 143.908 39.1104 143.845 39.0665C143.781 39.0226 143.709 38.9921 143.633 38.9769C143.557 38.9617 143.479 38.9621 143.403 38.9781L142.637 39.1331C142.531 39.1535 142.434 39.2043 142.358 39.2793Z" fill="#FFC2BC"/>
<path id="Vector_238" d="M140.777 40.4841L141.131 40.3955L141.335 41.6799L140.777 41.8127V40.4841Z" fill="white"/>
<path id="Vector_239" d="M141.073 41.8214C139.667 42.1192 138.24 42.3117 136.804 42.3972C135.325 42.512 133.838 42.4436 132.375 42.1935C131.986 42.119 131.601 42.0214 131.224 41.9011C130.852 41.786 130.506 41.662 130.161 41.5336C129.474 41.2811 128.832 41.011 128.163 40.7142L127.38 40.3599C126.786 40.0853 126.202 39.8019 125.608 39.5052C125.165 39.2926 124.753 39.0623 124.328 38.832L125.466 36.126C126.684 36.7372 128.124 37.5653 129.346 38.1721C130.493 38.7888 131.692 39.3045 132.929 39.7133C133.549 39.8774 134.179 40.0002 134.816 40.0809C135.471 40.1739 136.144 40.2315 136.813 40.2846C137.482 40.3378 138.173 40.3688 138.855 40.3776C139.537 40.3865 140.236 40.4086 140.91 40.4175L141.073 41.8214Z" fill="#263238"/>
<path id="Vector_240" opacity="0.2" d="M127.366 40.3601C126.773 40.0855 126.188 39.8021 125.595 39.5053L125.365 38.2476C126.251 38.7061 126.956 39.4505 127.366 40.3601Z" fill="black"/>
<path id="Vector_241" d="M115.612 41.4979C116.344 43.2985 116.927 45.1559 117.357 47.0516C117.676 48.3803 118.805 49.7089 119 50.9268C119.186 52.2702 119.452 53.6012 119.797 54.9128C121.148 54.1865 125.236 53.2874 127.977 51.8126C128.092 40.776 125.129 36.4712 125.129 36.4712C124.377 36.6626 123.638 36.9007 122.915 37.1842L122.437 37.3835C121.117 38.0061 119.831 38.6964 118.584 39.4518C118.34 39.5979 118.096 39.7485 117.862 39.8947C116.657 40.683 115.612 41.4979 115.612 41.4979Z" fill="#407BFF"/>
<path id="Vector_242" opacity="0.7" d="M115.612 41.4979C116.344 43.2985 116.927 45.1559 117.357 47.0516C117.676 48.3803 118.805 49.7089 119 50.9268C119.186 52.2702 119.452 53.6012 119.797 54.9128C121.148 54.1865 125.236 53.2874 127.977 51.8126C128.092 40.776 125.129 36.4712 125.129 36.4712C124.377 36.6626 123.638 36.9007 122.915 37.1842L122.437 37.3835C121.117 38.0061 119.831 38.6964 118.584 39.4518C118.34 39.5979 118.096 39.7485 117.862 39.8947C116.657 40.683 115.612 41.4979 115.612 41.4979Z" fill="white"/>
<path id="Vector_243" d="M122.871 41.29L123.039 40.2669L122.335 40.2227L121.905 40.6965L122.871 41.29Z" fill="#407BFF"/>
<path id="Vector_244" d="M122.335 40.2223C121.033 40.9487 119.744 40.1028 118.911 39.5226L118.823 39.4606C119.19 38.9513 119.226 38.1319 119.106 37.3082C118.965 36.3979 118.721 35.5065 118.38 34.6509L121.36 36.3604C121.36 36.5641 121.325 36.7457 121.316 36.9051C121.276 37.2905 121.272 37.5518 121.484 37.72C121.815 37.9044 122.192 37.989 122.57 37.9636C122.911 38.3578 123.229 39.7219 122.335 40.2223Z" fill="#FFC2BC"/>
<path id="Vector_245" d="M117.879 39.9082C117.879 39.9082 121.631 43.8233 124.376 45.9535C124.376 45.9535 124.173 39.0313 122.933 37.1933L125.484 36.126C125.484 36.126 127.937 41.5468 128.287 50.5993L129.394 52.8802L126.294 56.0335L125.298 53.6951L124.629 57.5747L118.234 58.1416L119.018 53.7128L115.24 41.755L117.879 39.9082Z" fill="#263238"/>
<path id="Vector_246" d="M122.534 41.0819C122.534 41.0819 123.42 44.1024 123.358 45.7144L124.501 46.3079L124.704 45.4221C124.704 45.4221 123.699 41.5292 122.773 40.8472L122.534 41.0819Z" fill="#407BFF"/>
<path id="Vector_247" d="M118.012 39.5854C118.012 39.5854 122.698 44.7272 124.354 45.954C124.354 45.954 123.872 38.9919 122.795 37.2425C122.795 37.2425 123.535 36.7332 125.112 38.27L124.323 39.7315L125.723 40.697C125.723 40.697 125.245 45.9142 124.323 48.3899C124.39 47.8671 124.42 47.3402 124.412 46.8132L118.916 43.7662L119.159 42.0832L117.082 41.9947C117.082 41.9947 117.313 40.0061 118.012 39.5854Z" fill="#263238"/>
<path id="Vector_248" opacity="0.2" d="M118.012 39.5854C118.012 39.5854 122.698 44.7272 124.354 45.954C124.354 45.954 123.872 38.9919 122.795 37.2425C122.795 37.2425 123.535 36.7332 125.112 38.27L124.323 39.7315L125.723 40.697C125.723 40.697 125.245 45.9142 124.323 48.3899C124.39 47.8671 124.42 47.3402 124.412 46.8132L118.916 43.7662L119.159 42.0832L117.082 41.9947C117.082 41.9947 117.313 40.0061 118.012 39.5854Z" fill="white"/>
<path id="Vector_249" d="M137.092 15.4209C137.092 15.4209 134.434 15.1197 132.951 15.8195C131.467 16.5192 129.975 18.8001 127.565 19.0171C125.156 19.2341 124.673 18.4502 124.673 18.4502C124.673 18.4502 126.795 22.2147 130.874 22.1748C134.953 22.135 137.074 21.4618 139.479 22.9764C139.488 22.9764 137.636 16.5945 137.092 15.4209Z" fill="#407BFF"/>
<path id="Vector_250" opacity="0.2" d="M121.484 37.7117C121.236 38.4823 120.621 39.5718 119.164 39.5452C119.08 39.5521 118.995 39.5521 118.911 39.5452L118.823 39.4832C119.19 38.9739 119.226 38.1545 119.106 37.3308C119.761 36.9069 120.557 36.7588 121.321 36.9189C121.276 37.2821 121.272 37.5434 121.484 37.7117Z" fill="black"/>
<path id="Vector_251" d="M122.335 40.2225C122.358 40.7577 122.244 41.2898 122.003 41.7682C121.183 41.653 118.734 40.4395 118.61 39.4253C118.673 39.1819 118.806 38.9619 118.991 38.792C119.925 39.613 121.096 40.1142 122.335 40.2225Z" fill="white"/>
<path id="Vector_252" d="M122.335 40.2226C122.791 40.341 123.216 40.5571 123.58 40.8559C123.81 39.9037 122.858 37.614 122.614 37.49C122.217 37.4516 121.817 37.5188 121.454 37.6849C121.454 37.6849 122.791 38.9338 122.335 40.2226Z" fill="white"/>
<path id="Vector_253" d="M115.776 33.6948C115.727 34.4521 116.219 35.8693 117.069 35.1607C117.919 34.4521 115.86 32.3927 115.776 33.6948Z" fill="#263238"/>
<path id="Vector_254" d="M121.077 33.4067C121.626 35.1782 122.038 36.2057 121.493 37.4236C120.67 39.2572 118.207 39.2527 117.131 37.6628C116.166 36.2367 115.426 33.5617 116.883 32.2375C117.205 31.9454 117.596 31.7396 118.019 31.6395C118.442 31.5393 118.884 31.5481 119.303 31.6648C119.722 31.7816 120.104 32.0026 120.414 32.3072C120.725 32.6118 120.953 32.9901 121.077 33.4067Z" fill="#FFC2BC"/>
<path id="Vector_255" d="M121.361 31.1521C121.183 29.9917 119.806 30.1556 119 30.7668V33.0565C119.311 32.9087 119.608 32.7322 119.886 32.5294C119.886 32.5294 120.2 34.2434 121.25 34.7438C122.587 33.4462 122.698 31.4444 121.361 31.1521Z" fill="#263238"/>
<path id="Vector_256" d="M122.308 34.6074C122.334 35.0728 122.174 35.5295 121.865 35.8784C121.445 36.3213 120.904 36.0334 120.749 35.4621C120.594 34.8908 120.656 34.1025 121.192 33.8589C121.315 33.8077 121.449 33.7877 121.581 33.8007C121.713 33.8138 121.841 33.8594 121.951 33.9335C122.062 34.0076 122.152 34.1079 122.214 34.2255C122.277 34.3431 122.309 34.4743 122.308 34.6074Z" fill="#FFC2BC"/>
<path id="Vector_257" d="M118.606 34.8682C118.659 35.0099 118.606 35.1517 118.531 35.1871C118.455 35.2225 118.318 35.1339 118.265 34.9922C118.212 34.8505 118.265 34.7088 118.34 34.6733C118.415 34.6379 118.548 34.7265 118.606 34.8682Z" fill="#263238"/>
<path id="Vector_258" d="M116.994 35.4571C117.051 35.5988 117.016 35.7405 116.923 35.776C116.83 35.8114 116.71 35.7228 116.657 35.5811C116.604 35.4394 116.635 35.2976 116.728 35.2622C116.821 35.2268 116.936 35.3154 116.994 35.4571Z" fill="#263238"/>
<path id="Vector_259" d="M117.53 35.3423C117.512 35.8256 117.427 36.3041 117.277 36.7639C117.4 36.7947 117.528 36.7987 117.653 36.7758C117.777 36.7529 117.895 36.7035 117.999 36.6311L117.53 35.3423Z" fill="#ED893E"/>
<path id="Vector_260" d="M118.969 36.8965L118.787 36.9762C118.776 36.9803 118.764 36.9798 118.753 36.9749C118.742 36.9699 118.734 36.9608 118.73 36.9497C118.726 36.9385 118.726 36.9262 118.731 36.9154C118.736 36.9046 118.745 36.8962 118.756 36.8921C118.935 36.8313 119.096 36.7295 119.227 36.5949C119.359 36.4603 119.457 36.2966 119.514 36.117C119.515 36.1112 119.517 36.1056 119.52 36.1006C119.524 36.0956 119.528 36.0913 119.533 36.088C119.538 36.0847 119.543 36.0824 119.549 36.0813C119.555 36.0802 119.561 36.0803 119.567 36.0816C119.573 36.0826 119.578 36.0848 119.583 36.0881C119.588 36.0914 119.592 36.0958 119.595 36.1009C119.598 36.1059 119.6 36.1116 119.6 36.1175C119.601 36.1233 119.6 36.1292 119.598 36.1348C119.551 36.2979 119.47 36.4497 119.362 36.5807C119.254 36.7117 119.12 36.8192 118.969 36.8965Z" fill="#263238"/>
<path id="Vector_261" d="M118.907 34.1684C118.893 34.1762 118.877 34.1802 118.86 34.1802C118.844 34.1802 118.828 34.1762 118.814 34.1684C118.721 34.1051 118.614 34.0648 118.503 34.051C118.391 34.0371 118.278 34.05 118.172 34.0887C118.15 34.0981 118.126 34.0985 118.104 34.0898C118.082 34.081 118.064 34.0639 118.054 34.0422C118.045 34.0205 118.045 33.9959 118.053 33.9739C118.062 33.9519 118.079 33.9342 118.101 33.9248C118.234 33.8742 118.376 33.8563 118.518 33.8725C118.659 33.8887 118.794 33.9385 118.911 34.0178C118.931 34.0313 118.944 34.0516 118.949 34.0746C118.954 34.0976 118.95 34.1216 118.938 34.1418C118.93 34.1527 118.919 34.1617 118.907 34.1684Z" fill="#263238"/>
<path id="Vector_262" d="M116.108 35.1602C116.091 35.1667 116.072 35.1667 116.055 35.1602C116.043 35.1591 116.032 35.1557 116.022 35.1502C116.011 35.1447 116.002 35.1372 115.995 35.1281C115.987 35.1191 115.982 35.1086 115.979 35.0974C115.975 35.0862 115.974 35.0744 115.975 35.0628C115.988 34.9205 116.035 34.7833 116.112 34.663C116.189 34.5427 116.294 34.4428 116.418 34.3719C116.429 34.3666 116.44 34.3634 116.452 34.3625C116.463 34.3617 116.475 34.3631 116.486 34.3669C116.497 34.3706 116.508 34.3764 116.517 34.3842C116.525 34.3919 116.533 34.4012 116.538 34.4118C116.549 34.4323 116.551 34.4565 116.545 34.4788C116.538 34.5012 116.523 34.5201 116.502 34.5313C116.406 34.5889 116.326 34.669 116.268 34.7647C116.21 34.8604 116.177 34.9688 116.17 35.0805C116.169 35.0985 116.163 35.1158 116.152 35.1301C116.141 35.1443 116.125 35.1548 116.108 35.1602Z" fill="#263238"/>
<path id="Vector_263" d="M119.846 32.5431C119.846 32.5431 118.725 33.699 117.631 33.6415C117.926 33.5073 118.195 33.3213 118.424 33.0923C118.424 33.0923 116.285 34.0179 115.231 33.5352C114.177 33.0524 114.297 32.5298 114.297 32.5298C114.297 32.5298 114.416 32.8354 115.439 32.8044C115.439 32.8044 114.553 32.2242 114.912 31.4049C114.963 31.5029 115.039 31.5864 115.131 31.6476C115.223 31.7088 115.329 31.7457 115.439 31.7548C115.786 31.2203 116.252 30.7734 116.801 30.4492C117.35 30.1249 117.966 29.9321 118.601 29.8858C120.9 29.6245 121.365 30.5324 121.467 31.2145C121.569 31.8965 119.846 32.5431 119.846 32.5431Z" fill="#263238"/>
</g>
<g id="character-1">
<path id="Vector_264" d="M83.0425 152.125H51.6864C51.3783 152.125 51.1284 152.375 51.1284 152.684V159.832C51.1284 160.14 51.3783 160.39 51.6864 160.39H83.0425C83.3507 160.39 83.6005 160.14 83.6005 159.832V152.684C83.6005 152.375 83.3507 152.125 83.0425 152.125Z" fill="#407BFF"/>
<path id="Vector_265" opacity="0.2" d="M53.8654 152.604H52.5811V159.986H53.8654V152.604Z" fill="black"/>
<path id="Vector_266" opacity="0.2" d="M56.7838 152.568H55.8494V159.951H56.7838V152.568Z" fill="black"/>
<path id="Vector_267" opacity="0.2" d="M59.4677 152.604H59.0027V159.986H59.4677V152.604Z" fill="black"/>
<path id="Vector_268" opacity="0.2" d="M63.0907 152.568H62.856V159.951H63.0907V152.568Z" fill="black"/>
<path id="Vector_269" opacity="0.2" d="M80.8633 159.951H82.1477V152.568H80.8633V159.951Z" fill="black"/>
<path id="Vector_270" opacity="0.2" d="M77.9449 159.986H78.8794V152.603H77.9449V159.986Z" fill="black"/>
<path id="Vector_271" opacity="0.2" d="M75.2567 159.951H75.7217V152.568H75.2567V159.951Z" fill="black"/>
<path id="Vector_272" opacity="0.2" d="M71.6339 159.986H71.8687V152.603H71.6339V159.986Z" fill="black"/>
<path id="Vector_273" opacity="0.2" d="M67.3067 159.986H67.4219V152.603H67.3067V159.986Z" fill="black"/>
<path id="Vector_274" opacity="0.2" d="M82.7322 153.383H52.0626C52.0113 153.384 51.9603 153.374 51.9128 153.355C51.8652 153.335 51.822 153.306 51.7857 153.27C51.7494 153.234 51.7207 153.191 51.7013 153.143C51.682 153.096 51.6723 153.045 51.6729 152.993C51.6729 152.89 51.7139 152.791 51.787 152.718C51.8601 152.645 51.9592 152.604 52.0626 152.604H82.7322C82.8355 152.604 82.9347 152.645 83.0077 152.718C83.0808 152.791 83.1219 152.89 83.1219 152.993C83.1225 153.045 83.1128 153.096 83.0934 153.143C83.0741 153.191 83.0454 153.234 83.0091 153.27C82.9728 153.306 82.9296 153.335 82.882 153.355C82.8345 153.374 82.7835 153.384 82.7322 153.383Z" fill="white"/>
<path id="Vector_275" d="M83.4851 143.883H52.1291C51.8209 143.883 51.571 144.133 51.571 144.441V151.589C51.571 151.898 51.8209 152.147 52.1291 152.147H83.4851C83.7933 152.147 84.0431 151.898 84.0431 151.589V144.441C84.0431 144.133 83.7933 143.883 83.4851 143.883Z" fill="#407BFF"/>
<path id="Vector_276" opacity="0.2" d="M54.308 144.362H53.0237V151.745H54.308V144.362Z" fill="black"/>
<path id="Vector_277" opacity="0.2" d="M57.2267 144.326H56.2922V151.709H57.2267V144.326Z" fill="black"/>
<path id="Vector_278" opacity="0.2" d="M59.9106 144.362H59.4456V151.745H59.9106V144.362Z" fill="black"/>
<path id="Vector_279" opacity="0.2" d="M63.5379 144.326H63.3032V151.709H63.5379V144.326Z" fill="black"/>
<path id="Vector_280" opacity="0.2" d="M81.3065 151.705H82.5908V144.322H81.3065V151.705Z" fill="black"/>
<path id="Vector_281" opacity="0.2" d="M78.3834 151.74H79.3179V144.357H78.3834V151.74Z" fill="black"/>
<path id="Vector_282" opacity="0.2" d="M75.6995 151.705H76.1646V144.322H75.6995V151.705Z" fill="black"/>
<path id="Vector_283" opacity="0.2" d="M72.0766 151.74H72.3113V144.357H72.0766V151.74Z" fill="black"/>
<path id="Vector_284" opacity="0.2" d="M67.7496 151.74H67.8647V144.357H67.7496V151.74Z" fill="black"/>
<path id="Vector_285" opacity="0.2" d="M83.1755 145.141H52.506C52.4026 145.141 52.3035 145.1 52.2304 145.027C52.1573 144.954 52.1162 144.855 52.1162 144.752C52.1156 144.7 52.1253 144.649 52.1447 144.602C52.1641 144.554 52.1928 144.511 52.2291 144.475C52.2654 144.438 52.3086 144.41 52.3561 144.39C52.4037 144.371 52.4546 144.361 52.506 144.362H83.1755C83.2269 144.361 83.2778 144.371 83.3254 144.39C83.3729 144.41 83.4161 144.438 83.4524 144.475C83.4887 144.511 83.5174 144.554 83.5368 144.602C83.5562 144.649 83.5659 144.7 83.5653 144.752C83.5653 144.855 83.5242 144.954 83.4511 145.027C83.378 145.1 83.2789 145.141 83.1755 145.141Z" fill="white"/>
<path id="Vector_286" d="M81.7139 135.641H50.3578C50.0496 135.641 49.7998 135.891 49.7998 136.199V143.347C49.7998 143.655 50.0496 143.905 50.3578 143.905H81.7139C82.022 143.905 82.2719 143.655 82.2719 143.347V136.199C82.2719 135.891 82.022 135.641 81.7139 135.641Z" fill="#407BFF"/>
<path id="Vector_287" opacity="0.2" d="M52.5322 136.115H51.2478V143.498H52.5322V136.115Z" fill="black"/>
<path id="Vector_288" opacity="0.2" d="M55.4552 136.08H54.5208V143.463H55.4552V136.08Z" fill="black"/>
<path id="Vector_289" opacity="0.2" d="M58.1391 136.115H57.6741V143.498H58.1391V136.115Z" fill="black"/>
<path id="Vector_290" opacity="0.2" d="M61.7621 136.08H61.5273V143.463H61.7621V136.08Z" fill="black"/>
<path id="Vector_291" opacity="0.2" d="M79.5306 143.462H80.8149V136.08H79.5306V143.462Z" fill="black"/>
<path id="Vector_292" opacity="0.2" d="M76.6163 143.498H77.5508V136.115H76.6163V143.498Z" fill="black"/>
<path id="Vector_293" opacity="0.2" d="M73.9278 143.462H74.3928V136.08H73.9278V143.462Z" fill="black"/>
<path id="Vector_294" opacity="0.2" d="M70.3053 143.498H70.54V136.115H70.3053V143.498Z" fill="black"/>
<path id="Vector_295" opacity="0.2" d="M65.9781 143.498H66.0933V136.115H65.9781V143.498Z" fill="black"/>
<path id="Vector_296" opacity="0.2" d="M81.4038 136.894H50.7342C50.6829 136.895 50.632 136.885 50.5844 136.866C50.5368 136.846 50.4936 136.818 50.4573 136.781C50.421 136.745 50.3923 136.702 50.373 136.654C50.3536 136.607 50.3439 136.556 50.3445 136.504C50.3445 136.401 50.3856 136.302 50.4587 136.229C50.5317 136.156 50.6309 136.115 50.7342 136.115H81.4038C81.5068 136.116 81.6053 136.157 81.6781 136.23C81.751 136.303 81.7924 136.401 81.7935 136.504C81.7935 136.608 81.7525 136.707 81.6794 136.78C81.6063 136.853 81.5072 136.894 81.4038 136.894Z" fill="white"/>
<path id="Vector_297" d="M64.0516 130.177L63.1614 132.369L62.4882 134.025L60.7964 133.423L61.4031 131.935L62.3598 129.57L64.0516 130.177Z" fill="#E4897B"/>
<path id="Vector_298" d="M100.209 118.439L98.7694 119.507L98.2424 118.337L97.02 115.636L98.4594 114.564L99.6153 117.124L100.209 118.439Z" fill="#E4897B"/>
<path id="Vector_299" opacity="0.2" d="M62.3599 129.57L64.0518 130.177L63.1616 132.369L61.4033 131.935L62.3599 129.57Z" fill="black"/>
<path id="Vector_300" opacity="0.2" d="M99.6153 117.124L98.2424 118.337L97.02 115.636L98.4594 114.564L99.6153 117.124Z" fill="black"/>
<path id="Vector_301" d="M76.749 69.4795C76.7978 69.6168 76.9085 69.7009 76.997 69.6699C77.0856 69.6389 77.1211 69.5016 77.0723 69.3643C77.0236 69.227 76.9129 69.1429 76.8243 69.1739C76.7358 69.2049 76.6915 69.3422 76.749 69.4795Z" fill="#263238"/>
<path id="Vector_302" d="M76.8953 69.7056C77.205 70.0644 77.5626 70.3789 77.9582 70.64C77.8896 70.7404 77.7997 70.8243 77.6947 70.8855C77.5898 70.9468 77.4725 70.984 77.3514 70.9944L76.8953 69.7056Z" fill="#DE5753"/>
<path id="Vector_303" d="M75.983 68.8994C75.9627 68.9053 75.9412 68.9053 75.921 68.8994C75.9063 68.8838 75.8982 68.8632 75.8982 68.8418C75.8982 68.8204 75.9063 68.7998 75.921 68.7842C75.9951 68.672 76.0947 68.579 76.2118 68.5128C76.3288 68.4466 76.4598 68.4091 76.5942 68.4033C76.6169 68.4045 76.6383 68.4143 76.6539 68.4308C76.6696 68.4473 76.6783 68.4692 76.6783 68.4919C76.6783 68.5033 76.676 68.5146 76.6715 68.5252C76.667 68.5357 76.6604 68.5451 76.6521 68.553C76.6438 68.5609 76.634 68.567 76.6233 68.571C76.6126 68.5749 76.6011 68.5766 76.5897 68.576C76.4831 68.5806 76.3791 68.6107 76.2866 68.6639C76.1941 68.7171 76.1158 68.7918 76.0583 68.8816C76.0476 68.8896 76.0354 68.8952 76.0225 68.8983C76.0095 68.9013 75.9961 68.9017 75.983 68.8994Z" fill="#263238"/>
<path id="Vector_304" d="M73.4717 71.7109C73.4939 73.0396 73.3256 75.4577 72.2671 76.1619C72.2671 76.1619 72.3867 77.5348 74.7871 77.96C77.4444 78.4339 76.284 76.8749 76.284 76.8749C74.9067 76.277 75.1325 75.2141 75.5621 74.2531L73.4717 71.7109Z" fill="#E4897B"/>
<path id="Vector_305" d="M72.0986 70.7946C72.7895 72.4333 73.1128 73.4519 74.2643 73.9922C75.9916 74.8337 77.8074 73.3367 77.5992 71.5254C77.4309 69.8911 76.3237 67.4863 74.4459 67.3977C74.0327 67.3766 73.6211 67.4614 73.2499 67.6442C72.8788 67.8269 72.5605 68.1015 72.3253 68.4418C72.0902 68.7822 71.9459 69.177 71.9062 69.5887C71.8665 70.0005 71.9328 70.4156 72.0986 70.7946Z" fill="#E4897B"/>
<path id="Vector_306" d="M73.2679 73.4608C74.0474 73.7753 76.4965 72.0215 75.6595 70.0019C75.6595 70.0019 76.4965 68.6512 76.1954 67.3447C75.8942 66.0382 74.911 65.644 73.981 66.0692C73.1572 66.4412 73.2458 66.9062 73.2458 66.9062C73.2458 66.9062 69.2599 67.9514 70.3493 69.4793C68.9454 71.4989 72.2892 73.0755 73.2679 73.4608Z" fill="#263238"/>
<path id="Vector_307" d="M75.0043 70.4624C75.1797 70.8683 75.483 71.2058 75.8679 71.4234C76.3816 71.7024 76.6784 71.3127 76.5721 70.7945C76.4658 70.2763 76.0982 69.6209 75.5667 69.5544C75.0353 69.488 74.8006 69.9752 75.0043 70.4624Z" fill="#E4897B"/>
<path id="Vector_308" d="M71.6292 76.1752C71.4432 75.8032 71.2395 75.378 71.6912 75.2629C72.143 75.1477 75.3494 74.9617 76.2662 75.2629C75.965 75.7633 76.43 76.4011 76.43 76.4011L71.6292 76.1752Z" fill="#407BFF"/>
<path id="Vector_309" opacity="0.5" d="M71.6292 76.1752C71.4432 75.8032 71.2395 75.378 71.6912 75.2629C72.143 75.1477 75.3494 74.9617 76.2662 75.2629C75.965 75.7633 76.43 76.4011 76.43 76.4011L71.6292 76.1752Z" fill="#FAFAFA"/>
<path id="Vector_310" d="M62.6036 133.307H60.6461C60.6105 133.307 60.5762 133.32 60.5488 133.342C60.5214 133.365 60.5026 133.396 60.4955 133.431L60.1412 135.026C60.1316 135.064 60.131 135.104 60.1396 135.143C60.1481 135.182 60.1655 135.218 60.1904 135.249C60.2153 135.28 60.247 135.304 60.283 135.321C60.319 135.338 60.3584 135.346 60.398 135.344C61.1022 135.344 62.1253 135.291 63.011 135.291C64.0518 135.291 64.9464 135.349 66.1644 135.349C66.904 135.349 67.1077 134.605 66.7977 134.538C65.3937 134.228 64.2511 134.197 63.0376 133.449C62.9085 133.363 62.7584 133.314 62.6036 133.307Z" fill="#263238"/>
<path id="Vector_311" d="M75.2699 92.0088C75.2699 92.0088 74.7119 95.7689 74.0343 100.091C73.7375 101.943 73.4187 103.896 73.1042 105.703C72.7543 107.727 72.4133 109.56 72.1299 110.853C70.8942 116.478 64.3352 131.979 64.3352 131.979L61.1243 131.284C61.1243 131.284 65.7125 119.224 66.7356 111.354C67.5283 105.317 69.0829 92.0044 69.0829 92.0044L75.2699 92.0088Z" fill="#263238"/>
<path id="Vector_312" d="M65.1014 130.902L64.5036 132.063L60.8896 131.279L61.1908 130.207L65.1014 130.902Z" fill="#407BFF"/>
<path id="Vector_313" opacity="0.3" d="M65.1014 130.902L64.5036 132.063L60.8896 131.279L61.1908 130.207L65.1014 130.902Z" fill="black"/>
<path id="Vector_314" opacity="0.2" d="M74.0343 100.092C73.7376 101.943 73.4187 103.896 73.1042 105.703C72.2185 102.129 72.5063 99.9897 72.5063 99.9897L74.0343 100.092Z" fill="black"/>
<path id="Vector_315" d="M70.0218 79.4576C69.1582 80.2725 68.2503 81.1361 67.4265 81.9997C66.5941 82.8453 65.8048 83.7321 65.0615 84.657C64.7444 85.1154 64.4588 85.5948 64.2068 86.092C63.9322 86.6278 63.6532 87.1726 63.3874 87.7306L61.7621 91.0877L60.4866 90.6448C60.7612 89.4003 61.111 88.1868 61.4919 86.9689C61.6912 86.3621 61.9038 85.7554 62.1385 85.1486C62.3861 84.4961 62.6898 83.8663 63.0464 83.2664C63.7661 82.1684 64.5749 81.1315 65.4646 80.1662C66.3249 79.2003 67.2418 78.2864 68.2104 77.4292L70.0218 79.4576Z" fill="#DC897C"/>
<path id="Vector_316" d="M60.3802 93.9218L61.0312 92.7659L59.0471 92.1636C58.9352 92.431 58.8806 92.7189 58.8867 93.0088C58.8928 93.2986 58.9595 93.584 59.0825 93.8465L60.3802 93.9218Z" fill="#E4897B"/>
<path id="Vector_317" d="M61.7576 91.0696L60.4865 90.6577L59.0471 92.1635L61.0312 92.7658L61.7576 91.0696Z" fill="#E4897B"/>
<path id="Vector_318" d="M100.187 118.196L98.57 119.397C98.5418 119.418 98.5216 119.449 98.5128 119.483C98.504 119.518 98.5069 119.554 98.5213 119.587L99.1856 121.08C99.2013 121.116 99.2253 121.148 99.2557 121.174C99.286 121.2 99.322 121.218 99.3606 121.228C99.3992 121.237 99.4396 121.237 99.4784 121.229C99.5172 121.22 99.5534 121.202 99.5842 121.177C100.142 120.734 100.395 120.513 101.103 119.986C101.546 119.662 102.556 118.949 103.163 118.502C103.769 118.055 103.402 117.395 103.114 117.528C101.825 118.108 101.081 118.17 100.488 118.112C100.38 118.103 100.273 118.133 100.187 118.196Z" fill="#263238"/>
<path id="Vector_319" d="M69.2513 76.344C67.5285 76.2377 64.9863 79.9624 64.9863 79.9624L67.493 83.3858C68.5932 82.7441 69.5086 81.8287 70.1503 80.7286C71.3417 78.7179 71.0095 76.4547 69.2513 76.344Z" fill="#407BFF"/>
<path id="Vector_320" opacity="0.6" d="M69.2513 76.344C67.5285 76.2377 64.9863 79.9624 64.9863 79.9624L67.493 83.3858C68.5932 82.7441 69.5086 81.8287 70.1503 80.7286C71.3417 78.7179 71.0095 76.4547 69.2513 76.344Z" fill="#FAFAFA"/>
<path id="Vector_321" opacity="0.2" d="M69.7382 79.7808C68.6089 80.3875 67.856 81.88 67.3821 83.2308L67.4928 83.3858C68.5929 82.7441 69.5084 81.8287 70.1501 80.7285C70.221 80.6134 70.2874 80.4894 70.3494 80.3698L69.7382 79.7808Z" fill="black"/>
<path id="Vector_322" d="M79.4462 76.0694C79.4462 76.0694 80.4781 78.6647 78.6711 92.0131H69.0827C69.0163 90.5383 69.9419 83.3548 68.5203 76.4193C69.5805 76.2135 70.6531 76.0774 71.7312 76.0118C72.9579 75.9542 77.0457 75.126 78.1264 75.2279C79.548 75.3519 79.4462 76.0694 79.4462 76.0694Z" fill="#407BFF"/>
<path id="Vector_323" opacity="0.6" d="M79.672 81.9548C79.5569 84.3154 79.269 87.5661 78.6711 92.0082H69.0827C69.0163 90.5334 69.9419 83.3499 68.5203 76.4144C69.5805 76.2086 70.6531 76.0725 71.7312 76.0069C72.9579 75.9493 77.0457 75.1212 78.1264 75.223C79.548 75.3515 79.455 76.0689 79.455 76.0689C79.455 76.0689 79.672 76.6137 79.7296 78.4871C79.7517 79.3418 79.7473 80.4712 79.672 81.9548Z" fill="#FAFAFA"/>
<path id="Vector_324" d="M78.2815 91.2339L80.1771 95.6627C80.1771 95.6627 89.358 96.8142 91.9621 99.9719C94.5663 103.13 99.4911 115.942 99.4911 115.942L97.0376 118.028C97.0376 118.028 89.9957 105.078 88.0249 103.515C86.0541 101.952 74.8359 101.956 72.3292 101.022C69.8225 100.087 69.1006 91.9956 69.1006 91.9956L78.2815 91.2339Z" fill="#263238"/>
<path id="Vector_325" d="M96.5149 117.785L99.4733 115.517L99.8542 116.248L97.0198 118.484L96.5149 117.785Z" fill="#407BFF"/>
<path id="Vector_326" opacity="0.3" d="M96.5149 117.785L99.4733 115.517L99.8542 116.248L97.0198 118.484L96.5149 117.785Z" fill="black"/>
<path id="Vector_327" d="M76.2487 67.9826C76.2487 67.9826 76.138 65.3518 74.7474 65.2633C73.3567 65.1747 72.2628 66.4325 72.2628 66.4325C72.1281 66.2646 71.9576 66.1289 71.7637 66.0354C71.5698 65.942 71.3575 65.893 71.1423 65.8921C70.354 65.8479 68.981 67.1898 68.981 67.1898C68.981 67.1898 70.695 66.1357 71.4169 66.6185C71.4169 66.6185 69.4726 67.1588 68.981 68.39C68.7702 69.0155 68.4221 69.586 67.9624 70.0597H68.981L68.3123 71.1979C68.3123 71.1979 69.7206 72.5575 70.7836 72.3317L70.4425 72.9783C70.4425 72.9783 72.5285 73.74 73.3788 73.5053C74.2292 73.2706 73.4231 69.0366 73.4231 69.0366L76.2487 67.9826Z" fill="#263238"/>
<path id="Vector_328" opacity="0.2" d="M79.672 81.955C77.9315 80.7726 77.958 78.0488 77.958 78.0488L79.7296 78.4917C79.7517 79.342 79.7473 80.4714 79.672 81.955Z" fill="black"/>
<path id="Vector_329" d="M63.6175 95.4011L51.7881 93.4126L48.7278 102.518L50.6853 106.075L63.5997 107.775L66.2172 97.8547L63.6175 95.4011Z" fill="#407BFF"/>
<path id="Vector_330" opacity="0.4" d="M48.7278 102.518L49.4895 103.904L49.6623 104.21L50.6853 106.075L63.5997 107.775L66.2172 97.8547L65.1055 96.8095L64.7645 96.4862L63.6219 95.4011L51.7881 93.4126L48.7278 102.518Z" fill="black"/>
<path id="Vector_331" opacity="0.2" d="M66.2174 97.8547L54.5076 96.0344L51.7883 93.4126L63.6221 95.4011L66.2174 97.8547Z" fill="white"/>
<path id="Vector_332" opacity="0.1" d="M54.5074 96.0344L50.6853 106.075L48.7278 102.518L51.7881 93.4126L54.5074 96.0344Z" fill="white"/>
<path id="Vector_333" d="M49.4897 103.905L49.6625 104.21L53.2011 94.8078L65.1058 96.8096L64.7647 96.4863L52.9885 94.5996L49.4897 103.905Z" fill="#263238"/>
<path id="Vector_334" d="M61.111 95.9416L60.5131 95.388L57.5325 94.8477L58.0551 95.45L61.111 95.9416Z" fill="#263238"/>
<path id="Vector_335" d="M62.2624 96.1627C62.2624 96.1627 62.3997 93.0359 62.3155 92.8278C62.2314 92.6196 58.0373 91.942 57.7228 91.8756C57.4084 91.8092 56.0266 94.8562 56.0266 94.8562L56.2658 95.2238L57.0585 95.3301C57.0585 95.3301 58.0639 92.7038 58.1657 92.6373C59.3149 92.7596 60.4564 92.9459 61.5848 93.1954C61.6734 93.2662 61.3279 95.6534 61.3279 95.6534L61.5981 96.0431L62.2624 96.1627Z" fill="#263238"/>
<path id="Vector_336" d="M49.5295 101.132L50.4153 102.27L50.4995 102.044L51.1682 100.273L51.2479 100.06L51.3896 99.6792C51.3896 99.6792 51.1372 99.9626 50.7918 100.286C50.4335 100.652 50.0039 100.939 49.5295 101.132Z" fill="#407BFF"/>
<path id="Vector_337" opacity="0.2" d="M49.8176 101.216L50.4775 102.044L51.1463 100.273L51.226 100.06C50.8589 100.556 50.3751 100.953 49.8176 101.216Z" fill="white"/>
<path id="Vector_338" opacity="0.2" d="M50.7698 100.282H51.1462L51.3677 99.6885C51.3677 99.6885 51.1152 99.9586 50.7698 100.282Z" fill="black"/>
<path id="Vector_339" d="M49.2061 98.9041L49.0422 100.507C49.7041 100.205 50.4411 100.106 51.1592 100.224L51.2434 100.002L51.7571 98.6251L51.8147 98.4834C50.9234 98.3957 50.0246 98.5406 49.2061 98.9041Z" fill="#407BFF"/>
<path id="Vector_340" d="M50.8894 96.1851C51.1988 96.7881 51.6059 97.3358 52.094 97.806L52.156 97.6377L52.3155 97.1948L52.5812 96.4641L52.7096 96.1098L52.7451 96.0079C52.5329 95.6833 52.3492 95.341 52.1959 94.9849L50.8894 96.1851Z" fill="#407BFF"/>
<path id="Vector_341" d="M53.5996 94.1215C53.7611 94.3743 53.8864 94.6487 53.9716 94.9364L54.1576 94.9674L54.4145 95.0072L54.8264 95.0825L55.2206 95.1489L55.3579 95.1711C55.3509 94.5561 55.1211 93.9644 54.7112 93.5059L53.5996 94.1215Z" fill="#407BFF"/>
<path id="Vector_342" opacity="0.2" d="M53.8474 94.1656C53.9796 94.4208 54.0836 94.6896 54.1574 94.9673L54.4143 95.0071C54.3926 94.9733 54.3786 94.9352 54.3732 94.8954C54.3679 94.8556 54.3713 94.8151 54.3833 94.7768C54.3948 94.7418 54.4131 94.7095 54.4372 94.6816C54.4613 94.6537 54.4906 94.6309 54.5236 94.6145C54.5565 94.598 54.5924 94.5882 54.6291 94.5857C54.6658 94.5831 54.7027 94.5879 54.7376 94.5997C54.7724 94.6107 54.8047 94.6286 54.8325 94.6522C54.8603 94.6759 54.8832 94.7048 54.8997 94.7374C54.9162 94.77 54.926 94.8055 54.9286 94.842C54.9312 94.8784 54.9265 94.915 54.9148 94.9495C54.8986 95.0014 54.8678 95.0475 54.8262 95.0824L55.2203 95.1488C55.197 94.6277 55.0163 94.1259 54.7022 93.7095L53.8474 94.1656Z" fill="white"/>
<path id="Vector_343" opacity="0.2" d="M49.3126 98.9664L49.2107 100.264C49.8645 100.044 50.5553 99.9553 51.2435 100.003L51.7573 98.6253C50.9266 98.5246 50.084 98.6421 49.3126 98.9664ZM50.7342 98.8601C50.7874 98.8416 50.8441 98.8356 50.9 98.8425C50.9559 98.8494 51.0094 98.8691 51.0565 98.9C51.1036 98.9309 51.1429 98.9722 51.1715 99.0207C51.2001 99.0692 51.2171 99.1237 51.2213 99.1798C51.2256 99.236 51.2168 99.2923 51.1958 99.3446C51.1748 99.3968 51.142 99.4435 51.1001 99.4811C51.0581 99.5187 51.0081 99.5461 50.9539 99.5613C50.8997 99.5765 50.8427 99.579 50.7874 99.5687C50.7342 99.5871 50.6774 99.5931 50.6216 99.5862C50.5657 99.5793 50.5121 99.5596 50.4651 99.5287C50.418 99.4978 50.3786 99.4565 50.3501 99.408C50.3215 99.3595 50.3044 99.3051 50.3002 99.2489C50.296 99.1928 50.3048 99.1364 50.3258 99.0842C50.3468 99.0319 50.3795 98.9852 50.4215 98.9476C50.4634 98.9101 50.5134 98.8826 50.5677 98.8674C50.6219 98.8523 50.6789 98.8497 50.7342 98.8601Z" fill="white"/>
<path id="Vector_344" opacity="0.2" d="M51.115 96.2558C51.4062 96.7558 51.7555 97.2197 52.1558 97.6375L52.3152 97.1947C52.2246 97.1581 52.1518 97.0878 52.1122 96.9985C52.0725 96.9093 52.0691 96.8081 52.1026 96.7164C52.1304 96.6253 52.1913 96.5481 52.2733 96.4997C52.3553 96.4513 52.4524 96.4354 52.5455 96.4551L52.6739 96.1007C52.4489 95.8518 52.2664 95.5675 52.1336 95.2593L51.115 96.2558Z" fill="white"/>
<path id="Vector_345" d="M90.7444 67.6988L91.4264 66.5605L92.9322 67.9866C92.755 68.2158 92.5319 68.4055 92.2772 68.5435C92.0225 68.6816 91.7418 68.7649 91.453 68.7882L90.7444 67.6988Z" fill="#E4897B"/>
<path id="Vector_346" d="M92.4801 65.0371L93.5474 66.5385L92.9318 67.9867L91.426 66.5606L92.4801 65.0371Z" fill="#E4897B"/>
<path id="Vector_347" d="M78.959 75.4488C80.1846 75.1973 81.3967 74.884 82.5906 74.5099C83.7409 74.1687 84.8447 73.6868 85.8768 73.075C85.971 73.016 86.0613 72.9509 86.147 72.8801L86.4525 72.5967C86.6651 72.3929 86.8954 72.1538 87.0947 71.9412C87.5155 71.4717 87.9495 70.989 88.3658 70.493C89.2206 69.5098 90.0532 68.4867 90.9124 67.4902L92.0329 68.2343C91.4172 69.4345 90.7352 70.5771 90.0133 71.7153C89.6457 72.2778 89.2693 72.8447 88.853 73.3983C88.6448 73.6729 88.4101 73.9519 88.1886 74.2309C88.0735 74.3682 87.9273 74.5099 87.7989 74.6516C87.6405 74.8085 87.4734 74.9564 87.2984 75.0945C86.1226 75.9381 84.8287 76.6037 83.4587 77.0698C82.1487 77.5437 80.8003 77.9038 79.4284 78.146L78.959 75.4488Z" fill="#DC897C"/>
<path id="Vector_348" d="M78.388 79.3205C80.2525 80.937 84.3492 78.1645 84.3492 78.1645L82.715 74.1299C81.2117 74.3052 79.7286 74.624 78.2861 75.0821C75.6953 75.9634 76.9619 78.0892 78.388 79.3205Z" fill="#407BFF"/>
<path id="Vector_349" opacity="0.6" d="M78.388 79.3205C80.2525 80.937 84.3492 78.1645 84.3492 78.1645L82.715 74.1299C81.2117 74.3052 79.7286 74.624 78.2861 75.0821C75.6953 75.9634 76.9619 78.0892 78.388 79.3205Z" fill="#FAFAFA"/>
</g>
</g>
</svg>
