<svg xmlns="http://www.w3.org/2000/svg" width="25" height="26" viewBox="0 0 25 26" fill="none">
  <path d="M3.10779 13.2889H12.4308V14.8427H3.10779V13.2889ZM1.55396 9.4043H9.32313V10.9581H1.55396V9.4043Z" fill="#1E293B"/>
  <path d="M23.2447 13.76L20.9139 8.32158C20.8541 8.1818 20.7546 8.06266 20.6276 7.97896C20.5007 7.89526 20.352 7.85069 20.2 7.85077H17.8692V6.29694C17.8692 6.09089 17.7873 5.89327 17.6416 5.74757C17.4959 5.60187 17.2983 5.52002 17.0923 5.52002H4.6616V7.07385H16.3154V16.8288C15.9613 17.0344 15.6515 17.308 15.4038 17.6339C15.156 17.9598 14.9752 18.3315 14.8719 18.7276H9.9897C9.80061 17.9952 9.3509 17.357 8.72488 16.9325C8.09885 16.508 7.33949 16.3263 6.58914 16.4216C5.83878 16.5169 5.14894 16.8826 4.64892 17.4502C4.14891 18.0177 3.87305 18.7481 3.87305 19.5045C3.87305 20.2609 4.14891 20.9913 4.64892 21.5589C5.14894 22.1264 5.83878 22.4921 6.58914 22.5874C7.33949 22.6827 8.09885 22.5011 8.72488 22.0766C9.3509 21.6521 9.80061 21.0138 9.9897 20.2815H14.8719C15.0409 20.9482 15.4274 21.5396 15.9702 21.9621C16.5131 22.3845 17.1813 22.6139 17.8692 22.6139C18.5571 22.6139 19.2253 22.3845 19.7682 21.9621C20.311 21.5396 20.6975 20.9482 20.8665 20.2815H22.5307C22.7368 20.2815 22.9344 20.1996 23.0801 20.0539C23.2258 19.9082 23.3076 19.7106 23.3076 19.5045V14.0661C23.3077 13.9609 23.2862 13.8567 23.2447 13.76ZM6.99236 21.0584C6.68504 21.0584 6.38462 20.9672 6.12909 20.7965C5.87357 20.6258 5.67441 20.3831 5.5568 20.0992C5.43919 19.8152 5.40842 19.5028 5.46838 19.2014C5.52833 18.9 5.67632 18.6231 5.89363 18.4058C6.11094 18.1885 6.3878 18.0405 6.68922 17.9806C6.99063 17.9206 7.30306 17.9514 7.58698 18.069C7.87091 18.1866 8.11359 18.3857 8.28432 18.6413C8.45506 18.8968 8.54619 19.1972 8.54619 19.5045C8.54578 19.9165 8.38194 20.3115 8.09063 20.6028C7.79932 20.8941 7.40433 21.058 6.99236 21.0584ZM17.8692 9.40461H19.6872L21.3529 13.2892H17.8692V9.40461ZM17.8692 21.0584C17.5619 21.0584 17.2615 20.9672 17.0059 20.7965C16.7504 20.6258 16.5513 20.3831 16.4336 20.0992C16.316 19.8152 16.2853 19.5028 16.3452 19.2014C16.4052 18.9 16.5532 18.6231 16.7705 18.4058C16.9878 18.1885 17.2646 18.0405 17.5661 17.9806C17.8675 17.9206 18.1799 17.9514 18.4638 18.069C18.7478 18.1866 18.9904 18.3857 19.1612 18.6413C19.3319 18.8968 19.423 19.1972 19.423 19.5045C19.4226 19.9165 19.2588 20.3115 18.9675 20.6028C18.6762 20.8941 18.2812 21.058 17.8692 21.0584ZM21.7538 18.7276H20.8665C20.6954 18.0621 20.3083 17.4723 19.7658 17.0505C19.2234 16.6287 18.5563 16.3988 17.8692 16.3969V14.843H21.7538V18.7276Z" fill="#1E293B"/>
</svg>