<svg xmlns="http://www.w3.org/2000/svg" width="25" height="25" viewBox="0 0 25 25" fill="none">
  <path d="M18.1658 1.61307C18.3079 1.6718 18.4293 1.77136 18.5148 1.89915C18.6003 2.02694 18.6459 2.17721 18.6459 2.33095V6.21553H22.5305C22.6844 6.21526 22.8349 6.26067 22.9629 6.34602C23.0909 6.43137 23.1907 6.55281 23.2496 6.69495C23.3085 6.83708 23.3239 6.99351 23.2938 7.1444C23.2637 7.29529 23.1895 7.43385 23.0806 7.54251L19.9729 10.6502C19.9006 10.7223 19.8148 10.7794 19.7205 10.8184C19.6261 10.8573 19.5249 10.8772 19.4229 10.877H15.083L13.9332 12.0284C13.9946 12.2588 14.0023 12.5002 13.9556 12.734C13.9089 12.9678 13.8091 13.1877 13.6638 13.3768C13.5186 13.5658 13.3319 13.719 13.118 13.8244C12.9042 13.9298 12.669 13.9847 12.4306 13.9847C12.0185 13.9847 11.6233 13.821 11.3319 13.5296C11.0405 13.2382 10.8768 12.843 10.8768 12.4309L10.8783 12.3594C10.889 12.1273 10.9515 11.9005 11.0614 11.6958C11.1713 11.4911 11.3257 11.3136 11.5133 11.1764C11.7008 11.0393 11.9167 10.9459 12.1452 10.9033C12.3736 10.8606 12.6086 10.8697 12.833 10.9299L13.9844 9.77848V5.43862C13.9842 5.33652 14.0042 5.23539 14.0431 5.14101C14.082 5.04663 14.1392 4.96084 14.2113 4.88856L17.319 1.78089C17.4277 1.6723 17.5662 1.5984 17.7169 1.56853C17.8677 1.53866 18.0239 1.55416 18.1658 1.61307ZM19.1012 9.3232L20.655 7.76937H17.869C17.663 7.76937 17.4654 7.68751 17.3197 7.54181C17.174 7.39611 17.0921 7.1985 17.0921 6.99245V4.20642L15.5383 5.76026V9.3232H19.1012ZM21.6681 11.1505C21.9362 13.0853 21.5899 15.0553 20.678 16.7826C19.7661 18.51 18.3348 19.9072 16.586 20.7772C14.8372 21.6473 12.8594 21.946 10.9317 21.6314C9.00393 21.3168 7.22371 20.4047 5.84229 19.0238C4.46088 17.6429 3.54806 15.8631 3.23269 13.9355C2.91732 12.0078 3.21533 10.0299 4.08465 8.28077C4.95397 6.53166 6.3507 5.09975 8.07765 4.1872C9.8046 3.27465 11.7746 2.92754 13.7094 3.19488L13.1143 3.79C12.868 4.03632 12.68 4.33472 12.5642 4.66325L12.4306 4.6617C10.8884 4.66193 9.38108 5.12115 8.10071 5.9809C6.82034 6.84064 5.82482 8.062 5.24092 9.48943C4.65702 10.9169 4.51117 12.4858 4.82193 13.9964C5.1327 15.507 5.88602 16.8909 6.98597 17.972C8.08591 19.053 9.48271 19.7822 10.9985 20.0667C12.5142 20.3512 14.0804 20.1782 15.4975 19.5696C16.9146 18.961 18.1185 17.9445 18.9559 16.6494C19.7933 15.3543 20.2263 13.8393 20.1998 12.2972C20.527 12.1815 20.8243 11.9941 21.0699 11.7487L21.6681 11.1505ZM12.4306 6.99245C11.355 6.99245 10.3035 7.31141 9.40917 7.90899C8.51483 8.50657 7.81777 9.35594 7.40615 10.3497C6.99453 11.3434 6.88683 12.4369 7.09667 13.4919C7.30651 14.5468 7.82447 15.5158 8.58505 16.2764C9.34563 17.037 10.3147 17.555 11.3696 17.7648C12.4246 17.9746 13.518 17.8669 14.5118 17.4553C15.5055 17.0437 16.3549 16.3466 16.9525 15.4523C17.5501 14.558 17.869 13.5065 17.869 12.4309H16.3152C16.3152 13.1992 16.0874 13.9502 15.6605 14.589C15.2337 15.2278 14.627 15.7257 13.9172 16.0198C13.2073 16.3138 12.4263 16.3907 11.6727 16.2408C10.9192 16.0909 10.227 15.721 9.68378 15.1777C9.14051 14.6344 8.77054 13.9423 8.62065 13.1887C8.47076 12.4352 8.54769 11.6541 8.8417 10.9443C9.13572 10.2345 9.63362 9.6278 10.2724 9.20096C10.9113 8.77411 11.6623 8.54629 12.4306 8.54629V6.99245Z" fill="#1E293B"/>
</svg>