<svg width="56" height="56" viewBox="0 0 56 56" fill="none" xmlns="http://www.w3.org/2000/svg">
<g id="group_">
<path id="image_" d="M23.3933 35.2426C23.3933 31.8681 22.7496 28.5432 21.5164 25.5484C21.2952 25.0224 21.0332 24.5254 20.7342 24.0646H10.0977V24.7632C11.5491 27.9685 12.3136 31.5538 12.3136 35.2426H31.1491M42.2288 42.2288H22.2853M41.1208 36.6398V29.6536C41.1208 29.6536 37.7969 26.8591 32.2571 26.8591C30.0278 26.8591 28.1576 27.3118 26.7172 27.8539M31.9247 21.2701C31.9247 21.2701 28.3792 18.4756 28.3792 14.9824C28.3792 13.6869 28.7873 12.4445 29.5137 11.5284C30.2401 10.6123 31.2253 10.0977 32.2526 10.0977C33.2799 10.0977 34.2652 10.6123 34.9916 11.5284C35.718 12.4445 36.1261 13.6869 36.1261 14.9824C36.1261 18.4756 32.5895 21.2701 32.5895 21.2701H31.9247Z" stroke="#252729" stroke-width="3"/>
<rect x="1.5" y="1.5" width="53" height="53" rx="8.5" stroke="#252729" stroke-width="3"/>
</g>
</svg>
